<?xml version="1.0" encoding="UTF-8" standalone="no"?>
<!DOCTYPE svg PUBLIC "-//W3C//DTD SVG 1.1//EN"
 "http://www.w3.org/Graphics/SVG/1.1/DTD/svg11.dtd">
<!-- Generated by graphviz version 12.1.2 (20240928.0832)
 -->
<!-- Title: G Pages: 1 -->
<svg width="473pt" height="584pt"
 viewBox="0.00 0.00 473.42 583.67" xmlns="http://www.w3.org/2000/svg" xmlns:xlink="http://www.w3.org/1999/xlink">
<g id="graph0" class="graph" transform="scale(1 1) rotate(0) translate(4 579.67)">
<title>G</title><style>.edge>path:hover{stroke-width:8}</style>
<polygon fill="white" stroke="none" points="-4,4 -4,-579.67 469.42,-579.67 469.42,4 -4,4"/>
<!-- apiary___main__ -->
<g id="node1" class="node">
<title>apiary___main__</title><style>.edge>path:hover{stroke-width:8}</style>
<ellipse fill="#ac4949" stroke="black" cx="254.42" cy="-21.57" rx="41.01" ry="21.57"/>
<text text-anchor="middle" x="254.42" y="-23.32" font-family="Helvetica,sans-Serif" font-size="10.00" fill="#ffffff">apiary.</text>
<text text-anchor="middle" x="254.42" y="-12.07" font-family="Helvetica,sans-Serif" font-size="10.00" fill="#ffffff">__main__</text>
</g>
<!-- apiary_agent_registry -->
<g id="node2" class="node">
<title>apiary_agent_registry</title><style>.edge>path:hover{stroke-width:8}</style>
<ellipse fill="#b03a3a" stroke="black" cx="243.42" cy="-251.83" rx="54.8" ry="21.57"/>
<text text-anchor="middle" x="243.42" y="-253.58" font-family="Helvetica,sans-Serif" font-size="10.00" fill="#ffffff">apiary.</text>
<text text-anchor="middle" x="243.42" y="-242.33" font-family="Helvetica,sans-Serif" font-size="10.00" fill="#ffffff">agent_registry</text>
</g>
<!-- apiary_inference -->
<g id="node9" class="node">
<title>apiary_inference</title><style>.edge>path:hover{stroke-width:8}</style>
<ellipse fill="#b03a3a" stroke="black" cx="316.42" cy="-172.7" rx="39.42" ry="21.57"/>
<text text-anchor="middle" x="316.42" y="-174.45" font-family="Helvetica,sans-Serif" font-size="10.00" fill="#ffffff">apiary.</text>
<text text-anchor="middle" x="316.42" y="-163.2" font-family="Helvetica,sans-Serif" font-size="10.00" fill="#ffffff">inference</text>
</g>
<!-- apiary_agent_registry&#45;&gt;apiary_inference -->
<g id="edge1" class="edge">
<title>apiary_agent_registry&#45;&gt;apiary_inference</title><style>.edge>path:hover{stroke-width:8}</style>
<path fill="none" stroke="black" d="M261.84,-231.37C270.68,-222.03 281.42,-210.68 291.02,-200.53"/>
<polygon fill="#b03a3a" stroke="black" points="293.39,-203.13 297.72,-193.46 288.3,-198.32 293.39,-203.13"/>
</g>
<!-- apiary_apiars -->
<g id="node3" class="node">
<title>apiary_apiars</title><style>.edge>path:hover{stroke-width:8}</style>
<ellipse fill="#b65353" stroke="black" cx="41.42" cy="-485.67" rx="41.42" ry="18"/>
<text text-anchor="middle" x="41.42" y="-481.79" font-family="Helvetica,sans-Serif" font-size="10.00" fill="#ffffff">apiary.apiars</text>
</g>
<!-- apiary_base_agent -->
<g id="node4" class="node">
<title>apiary_base_agent</title><style>.edge>path:hover{stroke-width:8}</style>
<ellipse fill="#bf2121" stroke="black" cx="82.42" cy="-410.1" rx="46.85" ry="21.57"/>
<text text-anchor="middle" x="82.42" y="-411.85" font-family="Helvetica,sans-Serif" font-size="10.00" fill="#ffffff">apiary.</text>
<text text-anchor="middle" x="82.42" y="-400.6" font-family="Helvetica,sans-Serif" font-size="10.00" fill="#ffffff">base_agent</text>
</g>
<!-- apiary_apiars&#45;&gt;apiary_base_agent -->
<g id="edge2" class="edge">
<title>apiary_apiars&#45;&gt;apiary_base_agent</title><style>.edge>path:hover{stroke-width:8}</style>
<path fill="none" stroke="black" d="M50.72,-467.97C55.12,-460.09 60.5,-450.43 65.58,-441.32"/>
<polygon fill="#b65353" stroke="black" points="68.56,-443.16 70.37,-432.72 62.44,-439.75 68.56,-443.16"/>
</g>
<!-- apiary_buyer -->
<g id="node5" class="node">
<title>apiary_buyer</title><style>.edge>path:hover{stroke-width:8}</style>
<ellipse fill="#b03a3a" stroke="black" cx="243.42" cy="-330.97" rx="40.09" ry="18"/>
<text text-anchor="middle" x="243.42" y="-327.09" font-family="Helvetica,sans-Serif" font-size="10.00" fill="#ffffff">apiary.buyer</text>
</g>
<!-- apiary_base_agent&#45;&gt;apiary_buyer -->
<g id="edge3" class="edge">
<title>apiary_base_agent&#45;&gt;apiary_buyer</title><style>.edge>path:hover{stroke-width:8}</style>
<path fill="none" stroke="black" d="M114.23,-393.86C140.8,-381.13 178.71,-362.97 206.59,-349.61"/>
<polygon fill="#bf2121" stroke="black" points="207.87,-352.88 215.38,-345.4 204.85,-346.57 207.87,-352.88"/>
</g>
<!-- apiary_seller -->
<g id="node10" class="node">
<title>apiary_seller</title><style>.edge>path:hover{stroke-width:8}</style>
<ellipse fill="#b03a3a" stroke="black" cx="145.42" cy="-330.97" rx="39.64" ry="18"/>
<text text-anchor="middle" x="145.42" y="-327.09" font-family="Helvetica,sans-Serif" font-size="10.00" fill="#ffffff">apiary.seller</text>
</g>
<!-- apiary_base_agent&#45;&gt;apiary_seller -->
<g id="edge4" class="edge">
<title>apiary_base_agent&#45;&gt;apiary_seller</title><style>.edge>path:hover{stroke-width:8}</style>
<path fill="none" stroke="black" d="M98.32,-389.64C106.38,-379.76 116.27,-367.66 124.9,-357.09"/>
<polygon fill="#bf2121" stroke="black" points="127.51,-359.43 131.12,-349.47 122.09,-355 127.51,-359.43"/>
</g>
<!-- apiary_validator -->
<g id="node13" class="node">
<title>apiary_validator</title><style>.edge>path:hover{stroke-width:8}</style>
<ellipse fill="#ac4949" stroke="black" cx="50.42" cy="-330.97" rx="37.3" ry="21.57"/>
<text text-anchor="middle" x="50.42" y="-332.72" font-family="Helvetica,sans-Serif" font-size="10.00" fill="#ffffff">apiary.</text>
<text text-anchor="middle" x="50.42" y="-321.47" font-family="Helvetica,sans-Serif" font-size="10.00" fill="#ffffff">validator</text>
</g>
<!-- apiary_base_agent&#45;&gt;apiary_validator -->
<g id="edge5" class="edge">
<title>apiary_base_agent&#45;&gt;apiary_validator</title><style>.edge>path:hover{stroke-width:8}</style>
<path fill="none" stroke="black" d="M73.84,-388.43C70.59,-380.59 66.81,-371.47 63.25,-362.89"/>
<polygon fill="#bf2121" stroke="black" points="66.55,-361.72 59.49,-353.83 60.09,-364.4 66.55,-361.72"/>
</g>
<!-- apiary_buyer&#45;&gt;apiary_agent_registry -->
<g id="edge6" class="edge">
<title>apiary_buyer&#45;&gt;apiary_agent_registry</title><style>.edge>path:hover{stroke-width:8}</style>
<path fill="none" stroke="black" d="M243.42,-312.85C243.42,-304.64 243.42,-294.54 243.42,-284.98"/>
<polygon fill="#b03a3a" stroke="black" points="246.92,-285.27 243.42,-275.27 239.92,-285.27 246.92,-285.27"/>
</g>
<!-- apiary_cli -->
<g id="node6" class="node">
<title>apiary_cli</title><style>.edge>path:hover{stroke-width:8}</style>
<ellipse fill="#993333" stroke="black" cx="254.42" cy="-97.13" rx="31.66" ry="18"/>
<text text-anchor="middle" x="254.42" y="-93.26" font-family="Helvetica,sans-Serif" font-size="10.00" fill="#ffffff">apiary.cli</text>
</g>
<!-- apiary_cli&#45;&gt;apiary___main__ -->
<g id="edge7" class="edge">
<title>apiary_cli&#45;&gt;apiary___main__</title><style>.edge>path:hover{stroke-width:8}</style>
<path fill="none" stroke="black" d="M254.42,-78.7C254.42,-71.54 254.42,-63.01 254.42,-54.79"/>
<polygon fill="#993333" stroke="black" points="257.92,-55.06 254.42,-45.06 250.92,-55.06 257.92,-55.06"/>
</g>
<!-- apiary_constants -->
<g id="node7" class="node">
<title>apiary_constants</title><style>.edge>path:hover{stroke-width:8}</style>
<ellipse fill="#c24747" stroke="black" cx="68.42" cy="-172.7" rx="41.54" ry="21.57"/>
<text text-anchor="middle" x="68.42" y="-174.45" font-family="Helvetica,sans-Serif" font-size="10.00" fill="#ffffff">apiary.</text>
<text text-anchor="middle" x="68.42" y="-163.2" font-family="Helvetica,sans-Serif" font-size="10.00" fill="#ffffff">constants</text>
</g>
<!-- apiary_constants&#45;&gt;apiary_cli -->
<g id="edge8" class="edge">
<title>apiary_constants&#45;&gt;apiary_cli</title><style>.edge>path:hover{stroke-width:8}</style>
<path fill="none" stroke="black" d="M100.5,-158.71C106.77,-156.19 113.3,-153.57 119.42,-151.13 152.83,-137.84 190.98,-122.88 218.18,-112.25"/>
<polygon fill="#c24747" stroke="black" points="219.31,-115.57 227.35,-108.68 216.76,-109.05 219.31,-115.57"/>
</g>
<!-- apiary_external_services -->
<g id="node8" class="node">
<title>apiary_external_services</title><style>.edge>path:hover{stroke-width:8}</style>
<ellipse fill="#c24747" stroke="black" cx="193.42" cy="-172.7" rx="65.41" ry="21.57"/>
<text text-anchor="middle" x="193.42" y="-174.45" font-family="Helvetica,sans-Serif" font-size="10.00" fill="#ffffff">apiary.</text>
<text text-anchor="middle" x="193.42" y="-163.2" font-family="Helvetica,sans-Serif" font-size="10.00" fill="#ffffff">external_services</text>
</g>
<!-- apiary_external_services&#45;&gt;apiary_cli -->
<g id="edge9" class="edge">
<title>apiary_external_services&#45;&gt;apiary_cli</title><style>.edge>path:hover{stroke-width:8}</style>
<path fill="none" stroke="black" d="M210.09,-151.6C217.57,-142.57 226.47,-131.84 234.32,-122.38"/>
<polygon fill="#c24747" stroke="black" points="236.79,-124.88 240.48,-114.95 231.4,-120.41 236.79,-124.88"/>
</g>
<!-- apiary_inference&#45;&gt;apiary_cli -->
<g id="edge10" class="edge">
<title>apiary_inference&#45;&gt;apiary_cli</title><style>.edge>path:hover{stroke-width:8}</style>
<path fill="none" stroke="black" d="M300.45,-152.76C292.65,-143.5 283.17,-132.25 274.85,-122.38"/>
<polygon fill="#b03a3a" stroke="black" points="277.71,-120.34 268.59,-114.95 272.36,-124.85 277.71,-120.34"/>
</g>
<!-- apiary_seller&#45;&gt;apiary_agent_registry -->
<g id="edge11" class="edge">
<title>apiary_seller&#45;&gt;apiary_agent_registry</title><style>.edge>path:hover{stroke-width:8}</style>
<path fill="none" stroke="black" d="M164.31,-315.1C177.52,-304.7 195.49,-290.56 210.96,-278.38"/>
<polygon fill="#b03a3a" stroke="black" points="212.84,-281.35 218.54,-272.42 208.51,-275.85 212.84,-281.35"/>
</g>
<!-- apiary_setup_anvil -->
<g id="node11" class="node">
<title>apiary_setup_anvil</title><style>.edge>path:hover{stroke-width:8}</style>
<ellipse fill="#b34c4c" stroke="black" cx="231.42" cy="-410.1" rx="46.32" ry="21.57"/>
<text text-anchor="middle" x="231.42" y="-411.85" font-family="Helvetica,sans-Serif" font-size="10.00" fill="#ffffff">apiary.</text>
<text text-anchor="middle" x="231.42" y="-400.6" font-family="Helvetica,sans-Serif" font-size="10.00" fill="#ffffff">setup_anvil</text>
</g>
<!-- apiary_utils -->
<g id="node12" class="node">
<title>apiary_utils</title><style>.edge>path:hover{stroke-width:8}</style>
<ellipse fill="#b03a3a" stroke="black" cx="371.42" cy="-410.1" rx="36.54" ry="18"/>
<text text-anchor="middle" x="371.42" y="-406.23" font-family="Helvetica,sans-Serif" font-size="10.00" fill="#ffffff">apiary.utils</text>
</g>
<!-- apiary_utils&#45;&gt;apiary_cli -->
<g id="edge12" class="edge">
<title>apiary_utils&#45;&gt;apiary_cli</title><style>.edge>path:hover{stroke-width:8}</style>
<path fill="none" stroke="black" d="M375.16,-391.9C385.27,-343.38 410.63,-206.82 383.42,-173.7"/>
<path fill="none" stroke="black" d="M383.42,-171.7C375.22,-162.34 374.42,-158.54 364.42,-151.13 342.01,-134.56 313.6,-121.03 291.27,-111.79"/>
<polygon fill="#b03a3a" stroke="black" points="292.84,-108.64 282.25,-108.16 290.23,-115.14 292.84,-108.64"/>
</g>
<!-- click -->
<g id="node14" class="node">
<title>click</title><style>.edge>path:hover{stroke-width:8}</style>
<polygon fill="#b6a853" stroke="black" points="465.42,-269.83 462.42,-273.83 441.42,-273.83 438.42,-269.83 411.42,-269.83 411.42,-233.83 465.42,-233.83 465.42,-269.83"/>
<text text-anchor="middle" x="438.42" y="-247.96" font-family="Helvetica,sans-Serif" font-size="10.00" fill="#000000">click</text>
</g>
<!-- click&#45;&gt;apiary_cli -->
<g id="edge13" class="edge">
<title>click&#45;&gt;apiary_cli</title><style>.edge>path:hover{stroke-width:8}</style>
<path fill="none" stroke="black" d="M427.05,-233.49C416.35,-217.52 399.6,-193.4 383.42,-173.7"/>
</g>
<!-- colorlog -->
<g id="node15" class="node">
<title>colorlog</title><style>.edge>path:hover{stroke-width:8}</style>
<polygon fill="#64c040" stroke="black" points="327.42,-575.67 324.42,-579.67 303.42,-579.67 300.42,-575.67 273.42,-575.67 273.42,-539.67 327.42,-539.67 327.42,-575.67"/>
<text text-anchor="middle" x="300.42" y="-553.79" font-family="Helvetica,sans-Serif" font-size="10.00" fill="#000000">colorlog</text>
</g>
<!-- colorlog&#45;&gt;apiary_utils -->
<g id="edge14" class="edge">
<title>colorlog&#45;&gt;apiary_utils</title><style>.edge>path:hover{stroke-width:8}</style>
<path fill="none" stroke="black" d="M327.67,-541.5C345.71,-529.44 367,-510.64 372.42,-486.67"/>
<path fill="none" stroke="black" d="M372.42,-484.67C375.73,-470.02 375.79,-453.31 374.89,-439.52"/>
<polygon fill="#64c040" stroke="black" points="378.39,-439.45 374.03,-429.79 371.42,-440.06 378.39,-439.45"/>
</g>
<!-- dotenv -->
<g id="node16" class="node">
<title>dotenv</title><style>.edge>path:hover{stroke-width:8}</style>
<polygon fill="#22e793" stroke="black" points="255.42,-575.67 252.42,-579.67 231.42,-579.67 228.42,-575.67 201.42,-575.67 201.42,-539.67 255.42,-539.67 255.42,-575.67"/>
<text text-anchor="middle" x="228.42" y="-553.79" font-family="Helvetica,sans-Serif" font-size="10.00" fill="#000000">dotenv</text>
</g>
<!-- dotenv&#45;&gt;apiary_base_agent -->
<g id="edge15" class="edge">
<title>dotenv&#45;&gt;apiary_base_agent</title><style>.edge>path:hover{stroke-width:8}</style>
<path fill="none" stroke="black" d="M229.48,-539.42C230.28,-525.25 231.26,-504.67 231.42,-486.67"/>
<path fill="none" stroke="black" d="M231.42,-484.67C231.52,-473.01 172.07,-446.73 128.24,-428.96"/>
<polygon fill="#22e793" stroke="black" points="129.75,-425.79 119.17,-425.31 127.14,-432.29 129.75,-425.79"/>
</g>
<!-- dotenv&#45;&gt;apiary_buyer -->
<g id="edge16" class="edge">
<title>dotenv&#45;&gt;apiary_buyer</title><style>.edge>path:hover{stroke-width:8}</style>
<path fill="none" stroke="black" d="M231.42,-484.67C231.72,-450.72 273.14,-462.91 286.42,-431.67 293.92,-414.03 292.54,-406.7 286.42,-388.53 282.46,-376.79 274.98,-365.54 267.36,-356.22"/>
<polygon fill="#22e793" stroke="black" points="270.03,-353.95 260.81,-348.73 264.76,-358.56 270.03,-353.95"/>
</g>
<!-- dotenv&#45;&gt;apiary_seller -->
<g id="edge17" class="edge">
<title>dotenv&#45;&gt;apiary_seller</title><style>.edge>path:hover{stroke-width:8}</style>
<path fill="none" stroke="black" d="M231.42,-484.67C230.98,-450.72 194.24,-460.56 176.42,-431.67 162.83,-409.64 154.76,-381.17 150.27,-360.3"/>
<polygon fill="#22e793" stroke="black" points="153.76,-359.89 148.38,-350.77 146.9,-361.26 153.76,-359.89"/>
</g>
<!-- dotenv&#45;&gt;apiary_setup_anvil -->
<g id="edge18" class="edge">
<title>dotenv&#45;&gt;apiary_setup_anvil</title><style>.edge>path:hover{stroke-width:8}</style>
<path fill="none" stroke="black" d="M231.42,-484.67C231.54,-471.08 231.56,-456.07 231.54,-443.18"/>
<polygon fill="#22e793" stroke="black" points="235.04,-443.54 231.52,-433.54 228.04,-443.55 235.04,-443.54"/>
</g>
<!-- dotenv&#45;&gt;apiary_utils -->
<g id="edge19" class="edge">
<title>dotenv&#45;&gt;apiary_utils</title><style>.edge>path:hover{stroke-width:8}</style>
<path fill="none" stroke="black" d="M231.42,-484.67C231.52,-473.08 292.36,-444.79 333.79,-426.86"/>
<polygon fill="#22e793" stroke="black" points="334.92,-430.18 342.73,-423.03 332.16,-423.75 334.92,-430.18"/>
</g>
<!-- fastapi -->
<g id="node17" class="node">
<title>fastapi</title><style>.edge>path:hover{stroke-width:8}</style>
<polygon fill="#538cb6" stroke="black" points="355.42,-348.97 352.42,-352.97 331.42,-352.97 328.42,-348.97 301.42,-348.97 301.42,-312.97 355.42,-312.97 355.42,-348.97"/>
<text text-anchor="middle" x="328.42" y="-327.09" font-family="Helvetica,sans-Serif" font-size="10.00" fill="#000000">fastapi</text>
</g>
<!-- fastapi&#45;&gt;apiary_inference -->
<g id="edge20" class="edge">
<title>fastapi&#45;&gt;apiary_inference</title><style>.edge>path:hover{stroke-width:8}</style>
<path fill="none" stroke="black" d="M327.09,-312.65C325.11,-286.89 321.36,-238.04 318.87,-205.67"/>
<polygon fill="#538cb6" stroke="black" points="322.39,-205.78 318.14,-196.08 315.41,-206.32 322.39,-205.78"/>
</g>
<!-- lighthouseweb3 -->
<g id="node18" class="node">
<title>lighthouseweb3</title><style>.edge>path:hover{stroke-width:8}</style>
<polygon fill="#7053b6" stroke="black" points="152.17,-575.67 149.17,-579.67 128.17,-579.67 125.17,-575.67 68.67,-575.67 68.67,-539.67 152.17,-539.67 152.17,-575.67"/>
<text text-anchor="middle" x="110.42" y="-553.79" font-family="Helvetica,sans-Serif" font-size="10.00" fill="#ffffff">lighthouseweb3</text>
</g>
<!-- lighthouseweb3&#45;&gt;apiary_base_agent -->
<g id="edge21" class="edge">
<title>lighthouseweb3&#45;&gt;apiary_base_agent</title><style>.edge>path:hover{stroke-width:8}</style>
<path fill="none" stroke="black" d="M107.1,-539.4C102.52,-515.6 94.19,-472.29 88.48,-442.63"/>
<polygon fill="#7053b6" stroke="black" points="91.98,-442.27 86.65,-433.11 85.1,-443.59 91.98,-442.27"/>
</g>
<!-- readwrite -->
<g id="node19" class="node">
<title>readwrite</title><style>.edge>path:hover{stroke-width:8}</style>
<polygon fill="#b653a8" stroke="black" points="401.29,-575.67 398.29,-579.67 377.29,-579.67 374.29,-575.67 345.54,-575.67 345.54,-539.67 401.29,-539.67 401.29,-575.67"/>
<text text-anchor="middle" x="373.42" y="-553.79" font-family="Helvetica,sans-Serif" font-size="10.00" fill="#ffffff">readwrite</text>
</g>
<!-- readwrite&#45;&gt;apiary_utils -->
<g id="edge22" class="edge">
<title>readwrite&#45;&gt;apiary_utils</title><style>.edge>path:hover{stroke-width:8}</style>
<path fill="none" stroke="black" d="M370.92,-539.17C369.4,-524.87 368.45,-504.21 372.42,-486.67"/>
</g>
</g>
</svg>
