<?xml version="1.0" encoding="UTF-8" standalone="no"?>
<!DOCTYPE svg PUBLIC "-//W3C//DTD SVG 1.1//EN"
 "http://www.w3.org/Graphics/SVG/1.1/DTD/svg11.dtd">
<!-- Generated by graphviz version 12.1.1 (20240910.0053)
 -->
<!-- Title: G Pages: 1 -->
<svg width="538pt" height="584pt"
 viewBox="0.00 0.00 537.62 583.67" xmlns="http://www.w3.org/2000/svg" xmlns:xlink="http://www.w3.org/1999/xlink">
<g id="graph0" class="graph" transform="scale(1 1) rotate(0) translate(4 579.67)">
<title>G</title><style>.edge>path:hover{stroke-width:8}</style>
<polygon fill="white" stroke="none" points="-4,4 -4,-579.67 533.62,-579.67 533.62,4 -4,4"/>
<!-- apiary___main__ -->
<g id="node1" class="node">
<title>apiary___main__</title><style>.edge>path:hover{stroke-width:8}</style>
<ellipse fill="#ac4949" stroke="black" cx="280.3" cy="-21.57" rx="41.01" ry="21.57"/>
<text text-anchor="middle" x="280.3" y="-23.32" font-family="Helvetica,sans-Serif" font-size="10.00" fill="#ffffff">apiary.</text>
<text text-anchor="middle" x="280.3" y="-12.07" font-family="Helvetica,sans-Serif" font-size="10.00" fill="#ffffff">__main__</text>
</g>
<!-- apiary_agent_registry -->
<g id="node2" class="node">
<title>apiary_agent_registry</title><style>.edge>path:hover{stroke-width:8}</style>
<ellipse fill="#b03a3a" stroke="black" cx="204.3" cy="-251.83" rx="54.8" ry="21.57"/>
<text text-anchor="middle" x="204.3" y="-253.58" font-family="Helvetica,sans-Serif" font-size="10.00" fill="#ffffff">apiary.</text>
<text text-anchor="middle" x="204.3" y="-242.33" font-family="Helvetica,sans-Serif" font-size="10.00" fill="#ffffff">agent_registry</text>
</g>
<!-- apiary_inference -->
<g id="node9" class="node">
<title>apiary_inference</title><style>.edge>path:hover{stroke-width:8}</style>
<ellipse fill="#b03a3a" stroke="black" cx="119.3" cy="-172.7" rx="39.42" ry="21.57"/>
<text text-anchor="middle" x="119.3" y="-174.45" font-family="Helvetica,sans-Serif" font-size="10.00" fill="#ffffff">apiary.</text>
<text text-anchor="middle" x="119.3" y="-163.2" font-family="Helvetica,sans-Serif" font-size="10.00" fill="#ffffff">inference</text>
</g>
<!-- apiary_agent_registry&#45;&gt;apiary_inference -->
<g id="edge1" class="edge">
<title>apiary_agent_registry&#45;&gt;apiary_inference</title><style>.edge>path:hover{stroke-width:8}</style>
<path fill="none" stroke="black" d="M183.29,-231.77C172.55,-222.03 159.34,-210.03 147.71,-199.48"/>
<polygon fill="#b03a3a" stroke="black" points="150.07,-196.9 140.31,-192.77 145.37,-202.08 150.07,-196.9"/>
</g>
<!-- apiary_apiars -->
<g id="node3" class="node">
<title>apiary_apiars</title><style>.edge>path:hover{stroke-width:8}</style>
<ellipse fill="#c24747" stroke="black" cx="302.3" cy="-410.1" rx="41.42" ry="18"/>
<text text-anchor="middle" x="302.3" y="-406.23" font-family="Helvetica,sans-Serif" font-size="10.00" fill="#ffffff">apiary.apiars</text>
</g>
<!-- apiary_buyer -->
<g id="node5" class="node">
<title>apiary_buyer</title><style>.edge>path:hover{stroke-width:8}</style>
<ellipse fill="#b42d2d" stroke="black" cx="302.3" cy="-330.97" rx="40.09" ry="18"/>
<text text-anchor="middle" x="302.3" y="-327.09" font-family="Helvetica,sans-Serif" font-size="10.00" fill="#ffffff">apiary.buyer</text>
</g>
<!-- apiary_apiars&#45;&gt;apiary_buyer -->
<g id="edge2" class="edge">
<title>apiary_apiars&#45;&gt;apiary_buyer</title><style>.edge>path:hover{stroke-width:8}</style>
<path fill="none" stroke="black" d="M302.3,-391.98C302.3,-382.76 302.3,-371.14 302.3,-360.58"/>
<polygon fill="#c24747" stroke="black" points="305.8,-360.82 302.3,-350.82 298.8,-360.82 305.8,-360.82"/>
</g>
<!-- apiary_seller -->
<g id="node10" class="node">
<title>apiary_seller</title><style>.edge>path:hover{stroke-width:8}</style>
<ellipse fill="#b03a3a" stroke="black" cx="204.3" cy="-330.97" rx="39.64" ry="18"/>
<text text-anchor="middle" x="204.3" y="-327.09" font-family="Helvetica,sans-Serif" font-size="10.00" fill="#ffffff">apiary.seller</text>
</g>
<!-- apiary_apiars&#45;&gt;apiary_seller -->
<g id="edge3" class="edge">
<title>apiary_apiars&#45;&gt;apiary_seller</title><style>.edge>path:hover{stroke-width:8}</style>
<path fill="none" stroke="black" d="M282.94,-393.86C268.58,-382.56 248.77,-366.97 232.63,-354.27"/>
<polygon fill="#c24747" stroke="black" points="234.83,-351.55 224.81,-348.11 230.5,-357.05 234.83,-351.55"/>
</g>
<!-- apiary_base_agent -->
<g id="node4" class="node">
<title>apiary_base_agent</title><style>.edge>path:hover{stroke-width:8}</style>
<ellipse fill="#d02424" stroke="black" cx="196.3" cy="-410.1" rx="46.85" ry="21.57"/>
<text text-anchor="middle" x="196.3" y="-411.85" font-family="Helvetica,sans-Serif" font-size="10.00" fill="#ffffff">apiary.</text>
<text text-anchor="middle" x="196.3" y="-400.6" font-family="Helvetica,sans-Serif" font-size="10.00" fill="#ffffff">base_agent</text>
</g>
<!-- apiary_base_agent&#45;&gt;apiary_buyer -->
<g id="edge4" class="edge">
<title>apiary_base_agent&#45;&gt;apiary_buyer</title><style>.edge>path:hover{stroke-width:8}</style>
<path fill="none" stroke="black" d="M220.62,-391.4C236.15,-380.1 256.39,-365.38 272.83,-353.41"/>
<polygon fill="#d02424" stroke="black" points="274.76,-356.34 280.79,-347.62 270.64,-350.68 274.76,-356.34"/>
</g>
<!-- apiary_base_agent&#45;&gt;apiary_seller -->
<g id="edge5" class="edge">
<title>apiary_base_agent&#45;&gt;apiary_seller</title><style>.edge>path:hover{stroke-width:8}</style>
<path fill="none" stroke="black" d="M198.44,-388.43C199.33,-379.93 200.36,-369.94 201.32,-360.74"/>
<polygon fill="#d02424" stroke="black" points="204.8,-361.11 202.35,-350.81 197.83,-360.39 204.8,-361.11"/>
</g>
<!-- apiary_validator -->
<g id="node13" class="node">
<title>apiary_validator</title><style>.edge>path:hover{stroke-width:8}</style>
<ellipse fill="#ac4949" stroke="black" cx="37.3" cy="-330.97" rx="37.3" ry="21.57"/>
<text text-anchor="middle" x="37.3" y="-332.72" font-family="Helvetica,sans-Serif" font-size="10.00" fill="#ffffff">apiary.</text>
<text text-anchor="middle" x="37.3" y="-321.47" font-family="Helvetica,sans-Serif" font-size="10.00" fill="#ffffff">validator</text>
</g>
<!-- apiary_base_agent&#45;&gt;apiary_validator -->
<g id="edge6" class="edge">
<title>apiary_base_agent&#45;&gt;apiary_validator</title><style>.edge>path:hover{stroke-width:8}</style>
<path fill="none" stroke="black" d="M164.89,-393.86C139.21,-381.4 102.8,-363.74 75.45,-350.47"/>
<polygon fill="#d02424" stroke="black" points="77.34,-347.5 66.81,-346.28 74.28,-353.8 77.34,-347.5"/>
</g>
<!-- apiary_buyer&#45;&gt;apiary_agent_registry -->
<g id="edge7" class="edge">
<title>apiary_buyer&#45;&gt;apiary_agent_registry</title><style>.edge>path:hover{stroke-width:8}</style>
<path fill="none" stroke="black" d="M282.94,-314.73C269.79,-304.38 252.08,-290.44 236.79,-278.41"/>
<polygon fill="#b42d2d" stroke="black" points="239.34,-275.96 229.32,-272.52 235.01,-281.46 239.34,-275.96"/>
</g>
<!-- apiary_cli -->
<g id="node6" class="node">
<title>apiary_cli</title><style>.edge>path:hover{stroke-width:8}</style>
<ellipse fill="#913030" stroke="black" cx="280.3" cy="-97.13" rx="31.66" ry="18"/>
<text text-anchor="middle" x="280.3" y="-93.26" font-family="Helvetica,sans-Serif" font-size="10.00" fill="#ffffff">apiary.cli</text>
</g>
<!-- apiary_buyer&#45;&gt;apiary_cli -->
<g id="edge8" class="edge">
<title>apiary_buyer&#45;&gt;apiary_cli</title><style>.edge>path:hover{stroke-width:8}</style>
<path fill="none" stroke="black" d="M397.3,-250.83C415.69,-217.11 454.3,-207.64 436.3,-173.7"/>
<path fill="none" stroke="black" d="M327.63,-316.92C350.03,-303.92 381.53,-281.74 397.3,-252.83"/>
<path fill="none" stroke="black" d="M436.3,-171.7C414.21,-130.05 360.28,-111.8 322.03,-103.93"/>
<polygon fill="#b42d2d" stroke="black" points="323.17,-100.58 312.69,-102.17 321.87,-107.46 323.17,-100.58"/>
</g>
<!-- apiary_cli&#45;&gt;apiary___main__ -->
<g id="edge9" class="edge">
<title>apiary_cli&#45;&gt;apiary___main__</title><style>.edge>path:hover{stroke-width:8}</style>
<path fill="none" stroke="black" d="M280.3,-78.7C280.3,-71.54 280.3,-63.01 280.3,-54.79"/>
<polygon fill="#913030" stroke="black" points="283.8,-55.06 280.3,-45.06 276.8,-55.06 283.8,-55.06"/>
</g>
<!-- apiary_constants -->
<g id="node7" class="node">
<title>apiary_constants</title><style>.edge>path:hover{stroke-width:8}</style>
<ellipse fill="#c24747" stroke="black" cx="218.3" cy="-172.7" rx="41.54" ry="21.57"/>
<text text-anchor="middle" x="218.3" y="-174.45" font-family="Helvetica,sans-Serif" font-size="10.00" fill="#ffffff">apiary.</text>
<text text-anchor="middle" x="218.3" y="-163.2" font-family="Helvetica,sans-Serif" font-size="10.00" fill="#ffffff">constants</text>
</g>
<!-- apiary_constants&#45;&gt;apiary_cli -->
<g id="edge10" class="edge">
<title>apiary_constants&#45;&gt;apiary_cli</title><style>.edge>path:hover{stroke-width:8}</style>
<path fill="none" stroke="black" d="M234.59,-152.37C242.39,-143.11 251.81,-131.94 260.07,-122.14"/>
<polygon fill="#c24747" stroke="black" points="262.5,-124.69 266.27,-114.79 257.15,-120.18 262.5,-124.69"/>
</g>
<!-- apiary_external_services -->
<g id="node8" class="node">
<title>apiary_external_services</title><style>.edge>path:hover{stroke-width:8}</style>
<ellipse fill="#c24747" stroke="black" cx="343.3" cy="-172.7" rx="65.41" ry="21.57"/>
<text text-anchor="middle" x="343.3" y="-174.45" font-family="Helvetica,sans-Serif" font-size="10.00" fill="#ffffff">apiary.</text>
<text text-anchor="middle" x="343.3" y="-163.2" font-family="Helvetica,sans-Serif" font-size="10.00" fill="#ffffff">external_services</text>
</g>
<!-- apiary_external_services&#45;&gt;apiary_cli -->
<g id="edge11" class="edge">
<title>apiary_external_services&#45;&gt;apiary_cli</title><style>.edge>path:hover{stroke-width:8}</style>
<path fill="none" stroke="black" d="M326.08,-151.6C318.35,-142.57 309.17,-131.84 301.06,-122.38"/>
<polygon fill="#c24747" stroke="black" points="303.85,-120.25 294.68,-114.93 298.53,-124.8 303.85,-120.25"/>
</g>
<!-- apiary_inference&#45;&gt;apiary_cli -->
<g id="edge12" class="edge">
<title>apiary_inference&#45;&gt;apiary_cli</title><style>.edge>path:hover{stroke-width:8}</style>
<path fill="none" stroke="black" d="M148.83,-158.21C176.2,-145.7 216.92,-127.09 245.78,-113.91"/>
<polygon fill="#b03a3a" stroke="black" points="247.19,-117.11 254.83,-109.77 244.28,-110.74 247.19,-117.11"/>
</g>
<!-- apiary_seller&#45;&gt;apiary_agent_registry -->
<g id="edge13" class="edge">
<title>apiary_seller&#45;&gt;apiary_agent_registry</title><style>.edge>path:hover{stroke-width:8}</style>
<path fill="none" stroke="black" d="M204.3,-312.85C204.3,-304.64 204.3,-294.54 204.3,-284.98"/>
<polygon fill="#b03a3a" stroke="black" points="207.8,-285.27 204.3,-275.27 200.8,-285.27 207.8,-285.27"/>
</g>
<!-- apiary_setup_anvil -->
<g id="node11" class="node">
<title>apiary_setup_anvil</title><style>.edge>path:hover{stroke-width:8}</style>
<ellipse fill="#b34c4c" stroke="black" cx="483.3" cy="-410.1" rx="46.32" ry="21.57"/>
<text text-anchor="middle" x="483.3" y="-411.85" font-family="Helvetica,sans-Serif" font-size="10.00" fill="#ffffff">apiary.</text>
<text text-anchor="middle" x="483.3" y="-400.6" font-family="Helvetica,sans-Serif" font-size="10.00" fill="#ffffff">setup_anvil</text>
</g>
<!-- apiary_utils -->
<g id="node12" class="node">
<title>apiary_utils</title><style>.edge>path:hover{stroke-width:8}</style>
<ellipse fill="#b03a3a" stroke="black" cx="397.3" cy="-330.97" rx="36.54" ry="18"/>
<text text-anchor="middle" x="397.3" y="-327.09" font-family="Helvetica,sans-Serif" font-size="10.00" fill="#ffffff">apiary.utils</text>
</g>
<!-- apiary_utils&#45;&gt;apiary_cli -->
<g id="edge14" class="edge">
<title>apiary_utils&#45;&gt;apiary_cli</title><style>.edge>path:hover{stroke-width:8}</style>
<path fill="none" stroke="black" d="M392.85,-312.88C389.54,-296.44 387.17,-271.41 397.3,-252.83"/>
</g>
<!-- click -->
<g id="node14" class="node">
<title>click</title><style>.edge>path:hover{stroke-width:8}</style>
<polygon fill="#b6a853" stroke="black" points="479.3,-269.83 476.3,-273.83 455.3,-273.83 452.3,-269.83 425.3,-269.83 425.3,-233.83 479.3,-233.83 479.3,-269.83"/>
<text text-anchor="middle" x="452.3" y="-247.96" font-family="Helvetica,sans-Serif" font-size="10.00" fill="#000000">click</text>
</g>
<!-- click&#45;&gt;apiary_cli -->
<g id="edge15" class="edge">
<title>click&#45;&gt;apiary_cli</title><style>.edge>path:hover{stroke-width:8}</style>
<path fill="none" stroke="black" d="M451.46,-233.35C450.05,-217.07 446.3,-192.55 436.3,-173.7"/>
</g>
<!-- colorlog -->
<g id="node15" class="node">
<title>colorlog</title><style>.edge>path:hover{stroke-width:8}</style>
<polygon fill="#64c040" stroke="black" points="408.3,-503.67 405.3,-507.67 384.3,-507.67 381.3,-503.67 354.3,-503.67 354.3,-467.67 408.3,-467.67 408.3,-503.67"/>
<text text-anchor="middle" x="381.3" y="-481.79" font-family="Helvetica,sans-Serif" font-size="10.00" fill="#000000">colorlog</text>
</g>
<!-- colorlog&#45;&gt;apiary_utils -->
<g id="edge16" class="edge">
<title>colorlog&#45;&gt;apiary_utils</title><style>.edge>path:hover{stroke-width:8}</style>
<path fill="none" stroke="black" d="M392.82,-467.21C401.17,-452.71 410.75,-431.27 409.3,-411.1"/>
<path fill="none" stroke="black" d="M409.3,-409.1C408.14,-392.94 405.44,-375.06 402.9,-360.58"/>
<polygon fill="#64c040" stroke="black" points="406.36,-360.03 401.11,-350.82 399.47,-361.29 406.36,-360.03"/>
</g>
<!-- dotenv -->
<g id="node16" class="node">
<title>dotenv</title><style>.edge>path:hover{stroke-width:8}</style>
<polygon fill="#3bce8f" stroke="black" points="352.3,-575.67 349.3,-579.67 328.3,-579.67 325.3,-575.67 298.3,-575.67 298.3,-539.67 352.3,-539.67 352.3,-575.67"/>
<text text-anchor="middle" x="325.3" y="-553.79" font-family="Helvetica,sans-Serif" font-size="10.00" fill="#000000">dotenv</text>
</g>
<!-- dotenv&#45;&gt;apiary_base_agent -->
<g id="edge17" class="edge">
<title>dotenv&#45;&gt;apiary_base_agent</title><style>.edge>path:hover{stroke-width:8}</style>
<path fill="none" stroke="black" d="M297.95,-542.06C278.08,-529.95 252.3,-510.82 238.3,-486.67"/>
</g>
<!-- dotenv&#45;&gt;apiary_setup_anvil -->
<g id="edge18" class="edge">
<title>dotenv&#45;&gt;apiary_setup_anvil</title><style>.edge>path:hover{stroke-width:8}</style>
<path fill="none" stroke="black" d="M436.3,-484.67C445.46,-470.17 455.71,-454.11 464.29,-440.71"/>
<polygon fill="#3bce8f" stroke="black" points="467.21,-442.63 469.66,-432.32 461.32,-438.85 467.21,-442.63"/>
</g>
<!-- dotenv&#45;&gt;apiary_utils -->
<g id="edge19" class="edge">
<title>dotenv&#45;&gt;apiary_utils</title><style>.edge>path:hover{stroke-width:8}</style>
<path fill="none" stroke="black" d="M436.3,-484.67C454.9,-455.22 411.8,-445.84 409.3,-411.1"/>
<path fill="none" stroke="black" d="M352.7,-547.32C378.82,-536.88 416.95,-517.29 436.3,-486.67"/>
</g>
<!-- fastapi -->
<g id="node17" class="node">
<title>fastapi</title><style>.edge>path:hover{stroke-width:8}</style>
<polygon fill="#538cb6" stroke="black" points="146.3,-348.97 143.3,-352.97 122.3,-352.97 119.3,-348.97 92.3,-348.97 92.3,-312.97 146.3,-312.97 146.3,-348.97"/>
<text text-anchor="middle" x="119.3" y="-327.09" font-family="Helvetica,sans-Serif" font-size="10.00" fill="#000000">fastapi</text>
</g>
<!-- fastapi&#45;&gt;apiary_inference -->
<g id="edge20" class="edge">
<title>fastapi&#45;&gt;apiary_inference</title><style>.edge>path:hover{stroke-width:8}</style>
<path fill="none" stroke="black" d="M119.3,-312.65C119.3,-286.89 119.3,-238.04 119.3,-205.67"/>
<polygon fill="#538cb6" stroke="black" points="122.8,-206.08 119.3,-196.08 115.8,-206.08 122.8,-206.08"/>
</g>
<!-- lighthouseweb3 -->
<g id="node18" class="node">
<title>lighthouseweb3</title><style>.edge>path:hover{stroke-width:8}</style>
<polygon fill="#7053b6" stroke="black" points="280.05,-575.67 277.05,-579.67 256.05,-579.67 253.05,-575.67 196.55,-575.67 196.55,-539.67 280.05,-539.67 280.05,-575.67"/>
<text text-anchor="middle" x="238.3" y="-553.79" font-family="Helvetica,sans-Serif" font-size="10.00" fill="#ffffff">lighthouseweb3</text>
</g>
<!-- lighthouseweb3&#45;&gt;apiary_base_agent -->
<g id="edge21" class="edge">
<title>lighthouseweb3&#45;&gt;apiary_base_agent</title><style>.edge>path:hover{stroke-width:8}</style>
<path fill="none" stroke="black" d="M242.89,-539.31C245.83,-524.33 247.56,-502.65 238.3,-486.67"/>
<path fill="none" stroke="black" d="M238.3,-484.67C230.01,-470.37 220.91,-454.45 213.3,-441.09"/>
<polygon fill="#7053b6" stroke="black" points="216.55,-439.72 208.56,-432.75 210.46,-443.18 216.55,-439.72"/>
</g>
<!-- readwrite -->
<g id="node19" class="node">
<title>readwrite</title><style>.edge>path:hover{stroke-width:8}</style>
<polygon fill="#c247b1" stroke="black" points="336.17,-503.67 333.17,-507.67 312.17,-507.67 309.17,-503.67 280.42,-503.67 280.42,-467.67 336.17,-467.67 336.17,-503.67"/>
<text text-anchor="middle" x="308.3" y="-481.79" font-family="Helvetica,sans-Serif" font-size="10.00" fill="#ffffff">readwrite</text>
</g>
<!-- readwrite&#45;&gt;apiary_buyer -->
<g id="edge22" class="edge">
<title>readwrite&#45;&gt;apiary_buyer</title><style>.edge>path:hover{stroke-width:8}</style>
<path fill="none" stroke="black" d="M371.3,-409.1C376.47,-385.42 357.02,-365.27 337.47,-351.51"/>
<polygon fill="#c247b1" stroke="black" points="339.52,-348.67 329.24,-346.12 335.68,-354.53 339.52,-348.67"/>
<path fill="none" stroke="black" d="M332.29,-467.21C347.91,-453.95 366.28,-434.1 371.3,-411.1"/>
</g>
<!-- readwrite&#45;&gt;apiary_utils -->
<g id="edge23" class="edge">
<title>readwrite&#45;&gt;apiary_utils</title><style>.edge>path:hover{stroke-width:8}</style>
<path fill="none" stroke="black" d="M371.3,-409.1C374.94,-392.43 380.93,-374.33 386.24,-359.86"/>
<polygon fill="#c247b1" stroke="black" points="389.5,-361.13 389.76,-350.54 382.95,-358.65 389.5,-361.13"/>
</g>
</g>
</svg>
