<?xml version="1.0" encoding="UTF-8" standalone="no"?>
<!DOCTYPE svg PUBLIC "-//W3C//DTD SVG 1.1//EN"
 "http://www.w3.org/Graphics/SVG/1.1/DTD/svg11.dtd">
<!-- Generated by graphviz version 12.1.2 (20240928.0832)
 -->
<!-- Title: G Pages: 1 -->
<svg width="638pt" height="549pt"
 viewBox="0.00 0.00 637.54 548.67" xmlns="http://www.w3.org/2000/svg" xmlns:xlink="http://www.w3.org/1999/xlink">
<g id="graph0" class="graph" transform="scale(1 1) rotate(0) translate(4 544.67)">
<title>G</title><style>.edge>path:hover{stroke-width:8}</style>
<polygon fill="white" stroke="none" points="-4,4 -4,-544.67 633.54,-544.67 633.54,4 -4,4"/>
<!-- apiary___main__ -->
<g id="node1" class="node">
<title>apiary___main__</title><style>.edge>path:hover{stroke-width:8}</style>
<ellipse fill="#ac4949" stroke="black" cx="259.54" cy="-21.57" rx="41.01" ry="21.57"/>
<text text-anchor="middle" x="259.54" y="-23.32" font-family="Helvetica,sans-Serif" font-size="10.00" fill="#ffffff">apiary.</text>
<text text-anchor="middle" x="259.54" y="-12.07" font-family="Helvetica,sans-Serif" font-size="10.00" fill="#ffffff">__main__</text>
</g>
<!-- apiary_agent_registry -->
<g id="node2" class="node">
<title>apiary_agent_registry</title><style>.edge>path:hover{stroke-width:8}</style>
<ellipse fill="#b03a3a" stroke="black" cx="383.54" cy="-251.83" rx="54.8" ry="21.57"/>
<text text-anchor="middle" x="383.54" y="-253.58" font-family="Helvetica,sans-Serif" font-size="10.00" fill="#ffffff">apiary.</text>
<text text-anchor="middle" x="383.54" y="-242.33" font-family="Helvetica,sans-Serif" font-size="10.00" fill="#ffffff">agent_registry</text>
</g>
<!-- apiary_inference -->
<g id="node9" class="node">
<title>apiary_inference</title><style>.edge>path:hover{stroke-width:8}</style>
<ellipse fill="#b03a3a" stroke="black" cx="383.54" cy="-172.7" rx="39.42" ry="21.57"/>
<text text-anchor="middle" x="383.54" y="-174.45" font-family="Helvetica,sans-Serif" font-size="10.00" fill="#ffffff">apiary.</text>
<text text-anchor="middle" x="383.54" y="-163.2" font-family="Helvetica,sans-Serif" font-size="10.00" fill="#ffffff">inference</text>
</g>
<!-- apiary_agent_registry&#45;&gt;apiary_inference -->
<g id="edge1" class="edge">
<title>apiary_agent_registry&#45;&gt;apiary_inference</title><style>.edge>path:hover{stroke-width:8}</style>
<path fill="none" stroke="black" d="M383.54,-230.16C383.54,-222.79 383.54,-214.29 383.54,-206.16"/>
<polygon fill="#b03a3a" stroke="black" points="387.04,-206.21 383.54,-196.21 380.04,-206.21 387.04,-206.21"/>
</g>
<!-- apiary_apiars -->
<g id="node3" class="node">
<title>apiary_apiars</title><style>.edge>path:hover{stroke-width:8}</style>
<ellipse fill="#c24747" stroke="black" cx="371.54" cy="-410.1" rx="41.42" ry="18"/>
<text text-anchor="middle" x="371.54" y="-406.23" font-family="Helvetica,sans-Serif" font-size="10.00" fill="#ffffff">apiary.apiars</text>
</g>
<!-- apiary_buyer -->
<g id="node5" class="node">
<title>apiary_buyer</title><style>.edge>path:hover{stroke-width:8}</style>
<ellipse fill="#b03a3a" stroke="black" cx="327.54" cy="-330.97" rx="40.09" ry="18"/>
<text text-anchor="middle" x="327.54" y="-327.09" font-family="Helvetica,sans-Serif" font-size="10.00" fill="#ffffff">apiary.buyer</text>
</g>
<!-- apiary_apiars&#45;&gt;apiary_buyer -->
<g id="edge2" class="edge">
<title>apiary_apiars&#45;&gt;apiary_buyer</title><style>.edge>path:hover{stroke-width:8}</style>
<path fill="none" stroke="black" d="M362,-392.36C356.34,-382.46 349.06,-369.69 342.65,-358.44"/>
<polygon fill="#c24747" stroke="black" points="345.82,-356.94 337.82,-349.99 339.74,-360.41 345.82,-356.94"/>
</g>
<!-- apiary_seller -->
<g id="node10" class="node">
<title>apiary_seller</title><style>.edge>path:hover{stroke-width:8}</style>
<ellipse fill="#b03a3a" stroke="black" cx="425.54" cy="-330.97" rx="39.64" ry="18"/>
<text text-anchor="middle" x="425.54" y="-327.09" font-family="Helvetica,sans-Serif" font-size="10.00" fill="#ffffff">apiary.seller</text>
</g>
<!-- apiary_apiars&#45;&gt;apiary_seller -->
<g id="edge3" class="edge">
<title>apiary_apiars&#45;&gt;apiary_seller</title><style>.edge>path:hover{stroke-width:8}</style>
<path fill="none" stroke="black" d="M383.26,-392.36C390.38,-382.19 399.63,-368.99 407.65,-357.52"/>
<polygon fill="#c24747" stroke="black" points="410.3,-359.85 413.17,-349.65 404.56,-355.83 410.3,-359.85"/>
</g>
<!-- apiary_base_agent -->
<g id="node4" class="node">
<title>apiary_base_agent</title><style>.edge>path:hover{stroke-width:8}</style>
<ellipse fill="#d02424" stroke="black" cx="477.54" cy="-410.1" rx="46.85" ry="21.57"/>
<text text-anchor="middle" x="477.54" y="-411.85" font-family="Helvetica,sans-Serif" font-size="10.00" fill="#ffffff">apiary.</text>
<text text-anchor="middle" x="477.54" y="-400.6" font-family="Helvetica,sans-Serif" font-size="10.00" fill="#ffffff">base_agent</text>
</g>
<!-- apiary_base_agent&#45;&gt;apiary_buyer -->
<g id="edge4" class="edge">
<title>apiary_base_agent&#45;&gt;apiary_buyer</title><style>.edge>path:hover{stroke-width:8}</style>
<path fill="none" stroke="black" d="M447.19,-393.49C422.96,-381.03 388.96,-363.55 363.39,-350.4"/>
<polygon fill="#d02424" stroke="black" points="365.19,-347.39 354.7,-345.93 361.99,-353.62 365.19,-347.39"/>
</g>
<!-- apiary_base_agent&#45;&gt;apiary_seller -->
<g id="edge5" class="edge">
<title>apiary_base_agent&#45;&gt;apiary_seller</title><style>.edge>path:hover{stroke-width:8}</style>
<path fill="none" stroke="black" d="M464.15,-389.24C457.72,-379.7 449.93,-368.14 443.04,-357.92"/>
<polygon fill="#d02424" stroke="black" points="446.12,-356.22 437.62,-349.89 440.31,-360.14 446.12,-356.22"/>
</g>
<!-- apiary_validator -->
<g id="node13" class="node">
<title>apiary_validator</title><style>.edge>path:hover{stroke-width:8}</style>
<ellipse fill="#ac4949" stroke="black" cx="520.54" cy="-330.97" rx="37.3" ry="21.57"/>
<text text-anchor="middle" x="520.54" y="-332.72" font-family="Helvetica,sans-Serif" font-size="10.00" fill="#ffffff">apiary.</text>
<text text-anchor="middle" x="520.54" y="-321.47" font-family="Helvetica,sans-Serif" font-size="10.00" fill="#ffffff">validator</text>
</g>
<!-- apiary_base_agent&#45;&gt;apiary_validator -->
<g id="edge6" class="edge">
<title>apiary_base_agent&#45;&gt;apiary_validator</title><style>.edge>path:hover{stroke-width:8}</style>
<path fill="none" stroke="black" d="M488.84,-388.83C493.47,-380.53 498.92,-370.76 503.98,-361.68"/>
<polygon fill="#d02424" stroke="black" points="506.92,-363.59 508.73,-353.15 500.81,-360.18 506.92,-363.59"/>
</g>
<!-- apiary_buyer&#45;&gt;apiary_agent_registry -->
<g id="edge7" class="edge">
<title>apiary_buyer&#45;&gt;apiary_agent_registry</title><style>.edge>path:hover{stroke-width:8}</style>
<path fill="none" stroke="black" d="M339.42,-313.61C346.07,-304.44 354.57,-292.74 362.33,-282.05"/>
<polygon fill="#b03a3a" stroke="black" points="364.96,-284.38 368,-274.24 359.3,-280.27 364.96,-284.38"/>
</g>
<!-- apiary_cli -->
<g id="node6" class="node">
<title>apiary_cli</title><style>.edge>path:hover{stroke-width:8}</style>
<ellipse fill="#993333" stroke="black" cx="259.54" cy="-97.13" rx="31.66" ry="18"/>
<text text-anchor="middle" x="259.54" y="-93.26" font-family="Helvetica,sans-Serif" font-size="10.00" fill="#ffffff">apiary.cli</text>
</g>
<!-- apiary_cli&#45;&gt;apiary___main__ -->
<g id="edge8" class="edge">
<title>apiary_cli&#45;&gt;apiary___main__</title><style>.edge>path:hover{stroke-width:8}</style>
<path fill="none" stroke="black" d="M259.54,-78.7C259.54,-71.54 259.54,-63.01 259.54,-54.79"/>
<polygon fill="#993333" stroke="black" points="263.04,-55.06 259.54,-45.06 256.04,-55.06 263.04,-55.06"/>
</g>
<!-- apiary_constants -->
<g id="node7" class="node">
<title>apiary_constants</title><style>.edge>path:hover{stroke-width:8}</style>
<ellipse fill="#c24747" stroke="black" cx="41.54" cy="-172.7" rx="41.54" ry="21.57"/>
<text text-anchor="middle" x="41.54" y="-174.45" font-family="Helvetica,sans-Serif" font-size="10.00" fill="#ffffff">apiary.</text>
<text text-anchor="middle" x="41.54" y="-163.2" font-family="Helvetica,sans-Serif" font-size="10.00" fill="#ffffff">constants</text>
</g>
<!-- apiary_constants&#45;&gt;apiary_cli -->
<g id="edge9" class="edge">
<title>apiary_constants&#45;&gt;apiary_cli</title><style>.edge>path:hover{stroke-width:8}</style>
<path fill="none" stroke="black" d="M73.5,-158.38C79.78,-155.89 86.34,-153.36 92.54,-151.13 136.13,-135.45 186.96,-119.67 220.98,-109.46"/>
<polygon fill="#c24747" stroke="black" points="221.81,-112.87 230.39,-106.65 219.81,-106.16 221.81,-112.87"/>
</g>
<!-- apiary_external_services -->
<g id="node8" class="node">
<title>apiary_external_services</title><style>.edge>path:hover{stroke-width:8}</style>
<ellipse fill="#c24747" stroke="black" cx="166.54" cy="-172.7" rx="65.41" ry="21.57"/>
<text text-anchor="middle" x="166.54" y="-174.45" font-family="Helvetica,sans-Serif" font-size="10.00" fill="#ffffff">apiary.</text>
<text text-anchor="middle" x="166.54" y="-163.2" font-family="Helvetica,sans-Serif" font-size="10.00" fill="#ffffff">external_services</text>
</g>
<!-- apiary_external_services&#45;&gt;apiary_cli -->
<g id="edge10" class="edge">
<title>apiary_external_services&#45;&gt;apiary_cli</title><style>.edge>path:hover{stroke-width:8}</style>
<path fill="none" stroke="black" d="M190.98,-152.37C203.92,-142.13 219.83,-129.55 233.07,-119.08"/>
<polygon fill="#c24747" stroke="black" points="234.88,-122.11 240.55,-113.16 230.53,-116.62 234.88,-122.11"/>
</g>
<!-- apiary_inference&#45;&gt;apiary_cli -->
<g id="edge11" class="edge">
<title>apiary_inference&#45;&gt;apiary_cli</title><style>.edge>path:hover{stroke-width:8}</style>
<path fill="none" stroke="black" d="M357.25,-156.1C337.78,-144.55 311.2,-128.78 290.68,-116.61"/>
<polygon fill="#b03a3a" stroke="black" points="292.55,-113.64 282.16,-111.55 288.98,-119.66 292.55,-113.64"/>
</g>
<!-- apiary_seller&#45;&gt;apiary_agent_registry -->
<g id="edge12" class="edge">
<title>apiary_seller&#45;&gt;apiary_agent_registry</title><style>.edge>path:hover{stroke-width:8}</style>
<path fill="none" stroke="black" d="M416.43,-313.23C411.65,-304.46 405.65,-293.44 400.09,-283.22"/>
<polygon fill="#b03a3a" stroke="black" points="403.31,-281.82 395.46,-274.71 397.16,-285.17 403.31,-281.82"/>
</g>
<!-- apiary_setup_anvil -->
<g id="node11" class="node">
<title>apiary_setup_anvil</title><style>.edge>path:hover{stroke-width:8}</style>
<ellipse fill="#b34c4c" stroke="black" cx="265.54" cy="-410.1" rx="46.32" ry="21.57"/>
<text text-anchor="middle" x="265.54" y="-411.85" font-family="Helvetica,sans-Serif" font-size="10.00" fill="#ffffff">apiary.</text>
<text text-anchor="middle" x="265.54" y="-400.6" font-family="Helvetica,sans-Serif" font-size="10.00" fill="#ffffff">setup_anvil</text>
</g>
<!-- apiary_utils -->
<g id="node12" class="node">
<title>apiary_utils</title><style>.edge>path:hover{stroke-width:8}</style>
<ellipse fill="#b03a3a" stroke="black" cx="164.54" cy="-410.1" rx="36.54" ry="18"/>
<text text-anchor="middle" x="164.54" y="-406.23" font-family="Helvetica,sans-Serif" font-size="10.00" fill="#ffffff">apiary.utils</text>
</g>
<!-- apiary_utils&#45;&gt;apiary_cli -->
<g id="edge13" class="edge">
<title>apiary_utils&#45;&gt;apiary_cli</title><style>.edge>path:hover{stroke-width:8}</style>
<path fill="none" stroke="black" d="M171.51,-392.1C186.04,-356.13 219.94,-269.43 240.54,-194.27 246.7,-171.82 251.7,-145.91 255.02,-126.64"/>
<polygon fill="#b03a3a" stroke="black" points="258.47,-127.26 256.67,-116.82 251.57,-126.1 258.47,-127.26"/>
</g>
<!-- click -->
<g id="node14" class="node">
<title>click</title><style>.edge>path:hover{stroke-width:8}</style>
<polygon fill="#b6a853" stroke="black" points="616.54,-269.83 613.54,-273.83 592.54,-273.83 589.54,-269.83 562.54,-269.83 562.54,-233.83 616.54,-233.83 616.54,-269.83"/>
<text text-anchor="middle" x="589.54" y="-247.96" font-family="Helvetica,sans-Serif" font-size="10.00" fill="#000000">click</text>
</g>
<!-- click&#45;&gt;apiary_cli -->
<g id="edge14" class="edge">
<title>click&#45;&gt;apiary_cli</title><style>.edge>path:hover{stroke-width:8}</style>
<path fill="none" stroke="black" d="M566.31,-233.39C536.44,-211.65 482.38,-174.5 431.54,-151.13 388.12,-131.17 335.19,-116.14 299.61,-107.28"/>
<polygon fill="#b6a853" stroke="black" points="300.72,-103.95 290.17,-104.98 299.06,-110.75 300.72,-103.95"/>
</g>
<!-- colorlog -->
<g id="node15" class="node">
<title>colorlog</title><style>.edge>path:hover{stroke-width:8}</style>
<polygon fill="#64c040" stroke="black" points="118.54,-540.67 115.54,-544.67 94.54,-544.67 91.54,-540.67 64.54,-540.67 64.54,-504.67 118.54,-504.67 118.54,-540.67"/>
<text text-anchor="middle" x="91.54" y="-518.79" font-family="Helvetica,sans-Serif" font-size="10.00" fill="#000000">colorlog</text>
</g>
<!-- colorlog&#45;&gt;apiary_utils -->
<g id="edge15" class="edge">
<title>colorlog&#45;&gt;apiary_utils</title><style>.edge>path:hover{stroke-width:8}</style>
<path fill="none" stroke="black" d="M164.54,-467.67C167.24,-458.78 167.95,-448.74 167.76,-439.61"/>
<polygon fill="#64c040" stroke="black" points="171.27,-439.6 167.19,-429.82 164.28,-440.01 171.27,-439.6"/>
<path fill="none" stroke="black" d="M118.95,-506.54C138.26,-495.09 161.24,-479.53 164.54,-468.67"/>
</g>
<!-- dotenv -->
<g id="node16" class="node">
<title>dotenv</title><style>.edge>path:hover{stroke-width:8}</style>
<polygon fill="#3bce8f" stroke="black" points="292.54,-540.67 289.54,-544.67 268.54,-544.67 265.54,-540.67 238.54,-540.67 238.54,-504.67 292.54,-504.67 292.54,-540.67"/>
<text text-anchor="middle" x="265.54" y="-518.79" font-family="Helvetica,sans-Serif" font-size="10.00" fill="#000000">dotenv</text>
</g>
<!-- dotenv&#45;&gt;apiary_base_agent -->
<g id="edge16" class="edge">
<title>dotenv&#45;&gt;apiary_base_agent</title><style>.edge>path:hover{stroke-width:8}</style>
<path fill="none" stroke="black" d="M265.54,-467.67C275.5,-433.51 387.44,-441.82 421.54,-431.67 424.86,-430.68 428.27,-429.6 431.68,-428.47"/>
<polygon fill="#3bce8f" stroke="black" points="432.78,-431.79 441.09,-425.22 430.49,-425.17 432.78,-431.79"/>
</g>
<!-- dotenv&#45;&gt;apiary_setup_anvil -->
<g id="edge17" class="edge">
<title>dotenv&#45;&gt;apiary_setup_anvil</title><style>.edge>path:hover{stroke-width:8}</style>
<path fill="none" stroke="black" d="M265.54,-467.67C267.8,-459.94 268.61,-451.36 268.67,-443.27"/>
<polygon fill="#3bce8f" stroke="black" points="272.17,-443.31 268.35,-433.43 265.17,-443.54 272.17,-443.31"/>
</g>
<!-- dotenv&#45;&gt;apiary_utils -->
<g id="edge18" class="edge">
<title>dotenv&#45;&gt;apiary_utils</title><style>.edge>path:hover{stroke-width:8}</style>
<path fill="none" stroke="black" d="M265.54,-467.67C267.7,-460.27 231,-441.42 201.24,-427.51"/>
<polygon fill="#3bce8f" stroke="black" points="203,-424.46 192.45,-423.45 200.07,-430.82 203,-424.46"/>
<path fill="none" stroke="black" d="M263.15,-504.62C262.25,-494.05 262.14,-480.33 265.54,-468.67"/>
</g>
<!-- fastapi -->
<g id="node17" class="node">
<title>fastapi</title><style>.edge>path:hover{stroke-width:8}</style>
<polygon fill="#538cb6" stroke="black" points="629.54,-348.97 626.54,-352.97 605.54,-352.97 602.54,-348.97 575.54,-348.97 575.54,-312.97 629.54,-312.97 629.54,-348.97"/>
<text text-anchor="middle" x="602.54" y="-327.09" font-family="Helvetica,sans-Serif" font-size="10.00" fill="#000000">fastapi</text>
</g>
<!-- fastapi&#45;&gt;apiary_inference -->
<g id="edge19" class="edge">
<title>fastapi&#45;&gt;apiary_inference</title><style>.edge>path:hover{stroke-width:8}</style>
<path fill="none" stroke="black" d="M578.27,-312.65C538.74,-284.44 460.43,-228.56 416.11,-196.94"/>
<polygon fill="#538cb6" stroke="black" points="418.33,-194.23 408.16,-191.27 414.27,-199.92 418.33,-194.23"/>
</g>
<!-- lighthouseweb3 -->
<g id="node18" class="node">
<title>lighthouseweb3</title><style>.edge>path:hover{stroke-width:8}</style>
<polygon fill="#7053b6" stroke="black" points="519.29,-540.67 516.29,-544.67 495.29,-544.67 492.29,-540.67 435.79,-540.67 435.79,-504.67 519.29,-504.67 519.29,-540.67"/>
<text text-anchor="middle" x="477.54" y="-518.79" font-family="Helvetica,sans-Serif" font-size="10.00" fill="#ffffff">lighthouseweb3</text>
</g>
<!-- lighthouseweb3&#45;&gt;apiary_base_agent -->
<g id="edge20" class="edge">
<title>lighthouseweb3&#45;&gt;apiary_base_agent</title><style>.edge>path:hover{stroke-width:8}</style>
<path fill="none" stroke="black" d="M477.54,-504.39C477.54,-488.12 477.54,-463.33 477.54,-443.4"/>
<polygon fill="#7053b6" stroke="black" points="481.04,-443.54 477.54,-433.54 474.04,-443.54 481.04,-443.54"/>
</g>
<!-- readwrite -->
<g id="node19" class="node">
<title>readwrite</title><style>.edge>path:hover{stroke-width:8}</style>
<polygon fill="#b653a8" stroke="black" points="192.42,-540.67 189.42,-544.67 168.42,-544.67 165.42,-540.67 136.67,-540.67 136.67,-504.67 192.42,-504.67 192.42,-540.67"/>
<text text-anchor="middle" x="164.54" y="-518.79" font-family="Helvetica,sans-Serif" font-size="10.00" fill="#ffffff">readwrite</text>
</g>
<!-- readwrite&#45;&gt;apiary_utils -->
<g id="edge21" class="edge">
<title>readwrite&#45;&gt;apiary_utils</title><style>.edge>path:hover{stroke-width:8}</style>
<path fill="none" stroke="black" d="M162.06,-504.59C161.12,-494.02 161.01,-480.29 164.54,-468.67"/>
</g>
</g>
</svg>
