<?xml version="1.0" encoding="UTF-8" standalone="no"?>
<!DOCTYPE svg PUBLIC "-//W3C//DTD SVG 1.1//EN"
 "http://www.w3.org/Graphics/SVG/1.1/DTD/svg11.dtd">
<!-- Generated by graphviz version 12.2.0 (20241103.1931)
 -->
<!-- Title: G Pages: 1 -->
<svg width="802pt" height="693pt"
 viewBox="0.00 0.00 802.41 692.67" xmlns="http://www.w3.org/2000/svg" xmlns:xlink="http://www.w3.org/1999/xlink">
<g id="graph0" class="graph" transform="scale(1 1) rotate(0) translate(4 688.67)">
<title>G</title><style>.edge>path:hover{stroke-width:8}</style>
<polygon fill="white" stroke="none" points="-4,4 -4,-688.67 798.41,-688.67 798.41,4 -4,4"/>
<!-- apiary___main__ -->
<g id="node1" class="node">
<title>apiary___main__</title><style>.edge>path:hover{stroke-width:8}</style>
<ellipse fill="#ac4949" stroke="black" cx="265.41" cy="-21.57" rx="41.01" ry="21.57"/>
<text text-anchor="middle" x="265.41" y="-23.32" font-family="Helvetica,sans-Serif" font-size="10.00" fill="#ffffff">apiary.</text>
<text text-anchor="middle" x="265.41" y="-12.07" font-family="Helvetica,sans-Serif" font-size="10.00" fill="#ffffff">__main__</text>
</g>
<!-- apiary_agent_registry -->
<g id="node2" class="node">
<title>apiary_agent_registry</title><style>.edge>path:hover{stroke-width:8}</style>
<ellipse fill="#a83838" stroke="black" cx="439.41" cy="-251.83" rx="54.8" ry="21.57"/>
<text text-anchor="middle" x="439.41" y="-253.58" font-family="Helvetica,sans-Serif" font-size="10.00" fill="#ffffff">apiary.</text>
<text text-anchor="middle" x="439.41" y="-242.33" font-family="Helvetica,sans-Serif" font-size="10.00" fill="#ffffff">agent_registry</text>
</g>
<!-- apiary_inference -->
<g id="node9" class="node">
<title>apiary_inference</title><style>.edge>path:hover{stroke-width:8}</style>
<ellipse fill="#a83838" stroke="black" cx="299.41" cy="-172.7" rx="39.42" ry="21.57"/>
<text text-anchor="middle" x="299.41" y="-174.45" font-family="Helvetica,sans-Serif" font-size="10.00" fill="#ffffff">apiary.</text>
<text text-anchor="middle" x="299.41" y="-163.2" font-family="Helvetica,sans-Serif" font-size="10.00" fill="#ffffff">inference</text>
</g>
<!-- apiary_agent_registry&#45;&gt;apiary_inference -->
<g id="edge1" class="edge">
<title>apiary_agent_registry&#45;&gt;apiary_inference</title><style>.edge>path:hover{stroke-width:8}</style>
<path fill="none" stroke="black" d="M408.34,-233.72C387.1,-222.01 358.85,-206.45 336.45,-194.11"/>
<polygon fill="#a83838" stroke="black" points="338.38,-191.18 327.93,-189.42 335,-197.31 338.38,-191.18"/>
</g>
<!-- apiary_apiars -->
<g id="node3" class="node">
<title>apiary_apiars</title><style>.edge>path:hover{stroke-width:8}</style>
<ellipse fill="#b65353" stroke="black" cx="381.41" cy="-485.67" rx="41.42" ry="18"/>
<text text-anchor="middle" x="381.41" y="-481.79" font-family="Helvetica,sans-Serif" font-size="10.00" fill="#ffffff">apiary.apiars</text>
</g>
<!-- apiary_base_agent -->
<g id="node4" class="node">
<title>apiary_base_agent</title><style>.edge>path:hover{stroke-width:8}</style>
<ellipse fill="#c11515" stroke="black" cx="413.41" cy="-410.1" rx="46.85" ry="21.57"/>
<text text-anchor="middle" x="413.41" y="-411.85" font-family="Helvetica,sans-Serif" font-size="10.00" fill="#ffffff">apiary.</text>
<text text-anchor="middle" x="413.41" y="-400.6" font-family="Helvetica,sans-Serif" font-size="10.00" fill="#ffffff">base_agent</text>
</g>
<!-- apiary_apiars&#45;&gt;apiary_base_agent -->
<g id="edge2" class="edge">
<title>apiary_apiars&#45;&gt;apiary_base_agent</title><style>.edge>path:hover{stroke-width:8}</style>
<path fill="none" stroke="black" d="M388.83,-467.6C392.14,-460 396.14,-450.8 399.94,-442.05"/>
<polygon fill="#b65353" stroke="black" points="403.05,-443.69 403.83,-433.13 396.63,-440.9 403.05,-443.69"/>
</g>
<!-- apiary_buyer -->
<g id="node5" class="node">
<title>apiary_buyer</title><style>.edge>path:hover{stroke-width:8}</style>
<ellipse fill="#b03a3a" stroke="black" cx="488.41" cy="-330.97" rx="40.09" ry="18"/>
<text text-anchor="middle" x="488.41" y="-327.09" font-family="Helvetica,sans-Serif" font-size="10.00" fill="#ffffff">apiary.buyer</text>
</g>
<!-- apiary_base_agent&#45;&gt;apiary_buyer -->
<g id="edge3" class="edge">
<title>apiary_base_agent&#45;&gt;apiary_buyer</title><style>.edge>path:hover{stroke-width:8}</style>
<path fill="none" stroke="black" d="M431.95,-390.03C441.97,-379.72 454.45,-366.89 465.12,-355.91"/>
<polygon fill="#c11515" stroke="black" points="467.35,-358.65 471.81,-349.04 462.33,-353.77 467.35,-358.65"/>
</g>
<!-- apiary_seller -->
<g id="node10" class="node">
<title>apiary_seller</title><style>.edge>path:hover{stroke-width:8}</style>
<ellipse fill="#b03a3a" stroke="black" cx="390.41" cy="-330.97" rx="39.64" ry="18"/>
<text text-anchor="middle" x="390.41" y="-327.09" font-family="Helvetica,sans-Serif" font-size="10.00" fill="#ffffff">apiary.seller</text>
</g>
<!-- apiary_base_agent&#45;&gt;apiary_seller -->
<g id="edge4" class="edge">
<title>apiary_base_agent&#45;&gt;apiary_seller</title><style>.edge>path:hover{stroke-width:8}</style>
<path fill="none" stroke="black" d="M407.24,-388.43C404.65,-379.74 401.59,-369.49 398.8,-360.12"/>
<polygon fill="#c11515" stroke="black" points="402.22,-359.33 396.01,-350.75 395.51,-361.33 402.22,-359.33"/>
</g>
<!-- apiary_shared -->
<g id="node11" class="node">
<title>apiary_shared</title><style>.edge>path:hover{stroke-width:8}</style>
<ellipse fill="#a13535" stroke="black" cx="589.41" cy="-330.97" rx="43.19" ry="18"/>
<text text-anchor="middle" x="589.41" y="-327.09" font-family="Helvetica,sans-Serif" font-size="10.00" fill="#ffffff">apiary.shared</text>
</g>
<!-- apiary_base_agent&#45;&gt;apiary_shared -->
<g id="edge5" class="edge">
<title>apiary_base_agent&#45;&gt;apiary_shared</title><style>.edge>path:hover{stroke-width:8}</style>
<path fill="none" stroke="black" d="M446.51,-394.59C475.91,-381.71 518.91,-362.87 550.05,-349.22"/>
<polygon fill="#c11515" stroke="black" points="551.39,-352.45 559.15,-345.23 548.58,-346.04 551.39,-352.45"/>
</g>
<!-- apiary_validator -->
<g id="node13" class="node">
<title>apiary_validator</title><style>.edge>path:hover{stroke-width:8}</style>
<ellipse fill="#ac4949" stroke="black" cx="223.41" cy="-330.97" rx="37.3" ry="21.57"/>
<text text-anchor="middle" x="223.41" y="-332.72" font-family="Helvetica,sans-Serif" font-size="10.00" fill="#ffffff">apiary.</text>
<text text-anchor="middle" x="223.41" y="-321.47" font-family="Helvetica,sans-Serif" font-size="10.00" fill="#ffffff">validator</text>
</g>
<!-- apiary_base_agent&#45;&gt;apiary_validator -->
<g id="edge6" class="edge">
<title>apiary_base_agent&#45;&gt;apiary_validator</title><style>.edge>path:hover{stroke-width:8}</style>
<path fill="none" stroke="black" d="M377.72,-395.61C348.46,-384.42 306.06,-367.92 269.41,-352.53 267.11,-351.57 264.76,-350.57 262.39,-349.55"/>
<polygon fill="#c11515" stroke="black" points="263.98,-346.42 253.41,-345.62 261.17,-352.83 263.98,-346.42"/>
</g>
<!-- apiary_buyer&#45;&gt;apiary_agent_registry -->
<g id="edge7" class="edge">
<title>apiary_buyer&#45;&gt;apiary_agent_registry</title><style>.edge>path:hover{stroke-width:8}</style>
<path fill="none" stroke="black" d="M477.78,-313.23C472.1,-304.3 464.95,-293.04 458.36,-282.67"/>
<polygon fill="#b03a3a" stroke="black" points="461.41,-280.94 453.09,-274.38 455.5,-284.7 461.41,-280.94"/>
</g>
<!-- apiary_cli -->
<g id="node6" class="node">
<title>apiary_cli</title><style>.edge>path:hover{stroke-width:8}</style>
<ellipse fill="#993333" stroke="black" cx="265.41" cy="-97.13" rx="31.66" ry="18"/>
<text text-anchor="middle" x="265.41" y="-93.26" font-family="Helvetica,sans-Serif" font-size="10.00" fill="#ffffff">apiary.cli</text>
</g>
<!-- apiary_cli&#45;&gt;apiary___main__ -->
<g id="edge8" class="edge">
<title>apiary_cli&#45;&gt;apiary___main__</title><style>.edge>path:hover{stroke-width:8}</style>
<path fill="none" stroke="black" d="M265.41,-78.7C265.41,-71.54 265.41,-63.01 265.41,-54.79"/>
<polygon fill="#993333" stroke="black" points="268.91,-55.06 265.41,-45.06 261.91,-55.06 268.91,-55.06"/>
</g>
<!-- apiary_constants -->
<g id="node7" class="node">
<title>apiary_constants</title><style>.edge>path:hover{stroke-width:8}</style>
<ellipse fill="#c24747" stroke="black" cx="162.41" cy="-172.7" rx="41.54" ry="21.57"/>
<text text-anchor="middle" x="162.41" y="-174.45" font-family="Helvetica,sans-Serif" font-size="10.00" fill="#ffffff">apiary.</text>
<text text-anchor="middle" x="162.41" y="-163.2" font-family="Helvetica,sans-Serif" font-size="10.00" fill="#ffffff">constants</text>
</g>
<!-- apiary_constants&#45;&gt;apiary_cli -->
<g id="edge9" class="edge">
<title>apiary_constants&#45;&gt;apiary_cli</title><style>.edge>path:hover{stroke-width:8}</style>
<path fill="none" stroke="black" d="M186.3,-154.64C201.36,-143.88 220.89,-129.93 236.78,-118.58"/>
<polygon fill="#c24747" stroke="black" points="238.79,-121.45 244.89,-112.79 234.72,-115.75 238.79,-121.45"/>
</g>
<!-- apiary_external_services -->
<g id="node8" class="node">
<title>apiary_external_services</title><style>.edge>path:hover{stroke-width:8}</style>
<ellipse fill="#c04040" stroke="black" cx="65.41" cy="-251.83" rx="65.41" ry="21.57"/>
<text text-anchor="middle" x="65.41" y="-253.58" font-family="Helvetica,sans-Serif" font-size="10.00" fill="#ffffff">apiary.</text>
<text text-anchor="middle" x="65.41" y="-242.33" font-family="Helvetica,sans-Serif" font-size="10.00" fill="#ffffff">external_services</text>
</g>
<!-- apiary_external_services&#45;&gt;apiary_cli -->
<g id="edge10" class="edge">
<title>apiary_external_services&#45;&gt;apiary_cli</title><style>.edge>path:hover{stroke-width:8}</style>
<path fill="none" stroke="black" d="M112.91,-236.65C150.07,-224.84 197.95,-207.83 213.41,-194.27 234.33,-175.92 248.34,-147.05 256.5,-125.73"/>
<polygon fill="#c04040" stroke="black" points="259.73,-127.09 259.82,-116.49 253.14,-124.72 259.73,-127.09"/>
</g>
<!-- apiary_inference&#45;&gt;apiary_cli -->
<g id="edge11" class="edge">
<title>apiary_inference&#45;&gt;apiary_cli</title><style>.edge>path:hover{stroke-width:8}</style>
<path fill="none" stroke="black" d="M290.12,-151.6C286.31,-143.37 281.86,-133.73 277.79,-124.92"/>
<polygon fill="#a83838" stroke="black" points="281.09,-123.72 273.72,-116.11 274.73,-126.65 281.09,-123.72"/>
</g>
<!-- apiary_seller&#45;&gt;apiary_agent_registry -->
<g id="edge12" class="edge">
<title>apiary_seller&#45;&gt;apiary_agent_registry</title><style>.edge>path:hover{stroke-width:8}</style>
<path fill="none" stroke="black" d="M401.04,-313.23C406.71,-304.3 413.87,-293.04 420.46,-282.67"/>
<polygon fill="#b03a3a" stroke="black" points="423.31,-284.7 425.72,-274.38 417.4,-280.94 423.31,-284.7"/>
</g>
<!-- apiary_shared&#45;&gt;apiary_agent_registry -->
<g id="edge13" class="edge">
<title>apiary_shared&#45;&gt;apiary_agent_registry</title><style>.edge>path:hover{stroke-width:8}</style>
<path fill="none" stroke="black" d="M562.94,-316.35C540.51,-304.82 507.95,-288.08 481.88,-274.68"/>
<polygon fill="#a13535" stroke="black" points="483.72,-271.69 473.23,-270.23 480.52,-277.91 483.72,-271.69"/>
</g>
<!-- apiary_utils -->
<g id="node12" class="node">
<title>apiary_utils</title><style>.edge>path:hover{stroke-width:8}</style>
<ellipse fill="#9b2626" stroke="black" cx="553.41" cy="-410.1" rx="36.54" ry="18"/>
<text text-anchor="middle" x="553.41" y="-406.23" font-family="Helvetica,sans-Serif" font-size="10.00" fill="#ffffff">apiary.utils</text>
</g>
<!-- apiary_utils&#45;&gt;apiary_cli -->
<g id="edge14" class="edge">
<title>apiary_utils&#45;&gt;apiary_cli</title><style>.edge>path:hover{stroke-width:8}</style>
<path fill="none" stroke="black" d="M582.16,-398.5C602.27,-389.49 627.87,-374.48 641.41,-352.53 662.39,-318.52 690.64,-199.83 660.41,-173.7"/>
<path fill="none" stroke="black" d="M660.41,-171.7C606.76,-127.91 398.73,-107.79 308.06,-100.97"/>
<polygon fill="#9b2626" stroke="black" points="308.57,-97.5 298.34,-100.26 308.06,-104.48 308.57,-97.5"/>
</g>
<!-- apiary_utils&#45;&gt;apiary_shared -->
<g id="edge15" class="edge">
<title>apiary_utils&#45;&gt;apiary_shared</title><style>.edge>path:hover{stroke-width:8}</style>
<path fill="none" stroke="black" d="M561.22,-392.36C565.72,-382.73 571.48,-370.38 576.62,-359.36"/>
<polygon fill="#9b2626" stroke="black" points="579.79,-360.85 580.85,-350.31 573.45,-357.89 579.79,-360.85"/>
</g>
<!-- click -->
<g id="node14" class="node">
<title>click</title><style>.edge>path:hover{stroke-width:8}</style>
<polygon fill="#b68e53" stroke="black" points="742.41,-269.83 739.41,-273.83 718.41,-273.83 715.41,-269.83 688.41,-269.83 688.41,-233.83 742.41,-233.83 742.41,-269.83"/>
<text text-anchor="middle" x="715.41" y="-247.96" font-family="Helvetica,sans-Serif" font-size="10.00" fill="#000000">click</text>
</g>
<!-- click&#45;&gt;apiary_cli -->
<g id="edge16" class="edge">
<title>click&#45;&gt;apiary_cli</title><style>.edge>path:hover{stroke-width:8}</style>
<path fill="none" stroke="black" d="M706.22,-233.37C696.62,-216.41 680.19,-190.8 660.41,-173.7"/>
</g>
<!-- colorlog -->
<g id="node15" class="node">
<title>colorlog</title><style>.edge>path:hover{stroke-width:8}</style>
<polygon fill="#a6c040" stroke="black" points="591.41,-575.67 588.41,-579.67 567.41,-579.67 564.41,-575.67 537.41,-575.67 537.41,-539.67 591.41,-539.67 591.41,-575.67"/>
<text text-anchor="middle" x="564.41" y="-553.79" font-family="Helvetica,sans-Serif" font-size="10.00" fill="#000000">colorlog</text>
</g>
<!-- colorlog&#45;&gt;apiary_utils -->
<g id="edge17" class="edge">
<title>colorlog&#45;&gt;apiary_utils</title><style>.edge>path:hover{stroke-width:8}</style>
<path fill="none" stroke="black" d="M638.41,-484.67C627.99,-461.47 606.16,-442.83 587.23,-430.12"/>
<polygon fill="#a6c040" stroke="black" points="589.26,-427.26 578.95,-424.83 585.5,-433.16 589.26,-427.26"/>
<path fill="none" stroke="black" d="M591.15,-539.35C614.6,-523.09 644.13,-499.41 638.41,-486.67"/>
</g>
<!-- dotenv -->
<g id="node16" class="node">
<title>dotenv</title><style>.edge>path:hover{stroke-width:8}</style>
<polygon fill="#4ae722" stroke="black" points="417.41,-575.67 414.41,-579.67 393.41,-579.67 390.41,-575.67 363.41,-575.67 363.41,-539.67 417.41,-539.67 417.41,-575.67"/>
<text text-anchor="middle" x="390.41" y="-553.79" font-family="Helvetica,sans-Serif" font-size="10.00" fill="#000000">dotenv</text>
</g>
<!-- dotenv&#45;&gt;apiary_base_agent -->
<g id="edge18" class="edge">
<title>dotenv&#45;&gt;apiary_base_agent</title><style>.edge>path:hover{stroke-width:8}</style>
<path fill="none" stroke="black" d="M417.88,-541.17C444.25,-525.62 481.14,-501.85 488.41,-486.67"/>
<path fill="none" stroke="black" d="M488.41,-484.67C498.77,-463.03 478.68,-444.21 456.7,-431.02"/>
<polygon fill="#4ae722" stroke="black" points="458.67,-428.11 448.23,-426.28 455.25,-434.22 458.67,-428.11"/>
</g>
<!-- dotenv&#45;&gt;apiary_buyer -->
<g id="edge19" class="edge">
<title>dotenv&#45;&gt;apiary_buyer</title><style>.edge>path:hover{stroke-width:8}</style>
<path fill="none" stroke="black" d="M488.41,-409.1C488.51,-393.09 488.52,-375.22 488.49,-360.71"/>
<polygon fill="#4ae722" stroke="black" points="491.99,-360.94 488.47,-350.94 484.99,-360.95 491.99,-360.94"/>
</g>
<!-- dotenv&#45;&gt;apiary_seller -->
<g id="edge20" class="edge">
<title>dotenv&#45;&gt;apiary_seller</title><style>.edge>path:hover{stroke-width:8}</style>
<path fill="none" stroke="black" d="M488.41,-409.1C488.51,-392.44 453.09,-367.95 424.81,-351.05"/>
<polygon fill="#4ae722" stroke="black" points="426.88,-348.21 416.48,-346.18 423.35,-354.25 426.88,-348.21"/>
<path fill="none" stroke="black" d="M488.41,-484.67C502.53,-455.18 488.2,-443.8 488.41,-411.1"/>
</g>
<!-- dotenv&#45;&gt;apiary_shared -->
<g id="edge21" class="edge">
<title>dotenv&#45;&gt;apiary_shared</title><style>.edge>path:hover{stroke-width:8}</style>
<path fill="none" stroke="black" d="M488.41,-409.1C488.51,-392.28 524.34,-368.12 553.29,-351.34"/>
<polygon fill="#4ae722" stroke="black" points="554.88,-354.46 561.86,-346.48 551.43,-348.37 554.88,-354.46"/>
</g>
<!-- dotenv&#45;&gt;apiary_utils -->
<g id="edge22" class="edge">
<title>dotenv&#45;&gt;apiary_utils</title><style>.edge>path:hover{stroke-width:8}</style>
<path fill="none" stroke="black" d="M488.41,-484.67C497.67,-465.32 513.54,-447.21 527.28,-433.8"/>
<polygon fill="#4ae722" stroke="black" points="529.49,-436.53 534.38,-427.13 524.69,-431.43 529.49,-436.53"/>
</g>
<!-- fastapi -->
<g id="node17" class="node">
<title>fastapi</title><style>.edge>path:hover{stroke-width:8}</style>
<polygon fill="#53b67b" stroke="black" points="332.41,-348.97 329.41,-352.97 308.41,-352.97 305.41,-348.97 278.41,-348.97 278.41,-312.97 332.41,-312.97 332.41,-348.97"/>
<text text-anchor="middle" x="305.41" y="-327.09" font-family="Helvetica,sans-Serif" font-size="10.00" fill="#000000">fastapi</text>
</g>
<!-- fastapi&#45;&gt;apiary_inference -->
<g id="edge23" class="edge">
<title>fastapi&#45;&gt;apiary_inference</title><style>.edge>path:hover{stroke-width:8}</style>
<path fill="none" stroke="black" d="M277.97,-314.11C275.09,-312.5 272.19,-310.91 269.41,-309.4 220.69,-283.09 149.84,-307.54 158.41,-252.83"/>
</g>
<!-- lighthouseweb3 -->
<g id="node18" class="node">
<title>lighthouseweb3</title><style>.edge>path:hover{stroke-width:8}</style>
<polygon fill="#47c2c2" stroke="black" points="519.16,-575.67 516.16,-579.67 495.16,-579.67 492.16,-575.67 435.66,-575.67 435.66,-539.67 519.16,-539.67 519.16,-575.67"/>
<text text-anchor="middle" x="477.41" y="-553.79" font-family="Helvetica,sans-Serif" font-size="10.00" fill="#000000">lighthouseweb3</text>
</g>
<!-- lighthouseweb3&#45;&gt;apiary_base_agent -->
<g id="edge24" class="edge">
<title>lighthouseweb3&#45;&gt;apiary_base_agent</title><style>.edge>path:hover{stroke-width:8}</style>
<path fill="none" stroke="black" d="M539.41,-484.67C540.11,-465.54 496.09,-443.37 459.9,-428.41"/>
<polygon fill="#47c2c2" stroke="black" points="461.45,-425.26 450.87,-424.76 458.83,-431.75 461.45,-425.26"/>
<path fill="none" stroke="black" d="M505.33,-539.21C521.41,-526.84 538.61,-508.57 539.41,-486.67"/>
</g>
<!-- lighthouseweb3&#45;&gt;apiary_utils -->
<g id="edge25" class="edge">
<title>lighthouseweb3&#45;&gt;apiary_utils</title><style>.edge>path:hover{stroke-width:8}</style>
<path fill="none" stroke="black" d="M539.41,-484.67C539.96,-469.49 542.92,-452.85 545.98,-439.24"/>
<polygon fill="#47c2c2" stroke="black" points="549.36,-440.19 548.28,-429.65 542.55,-438.56 549.36,-440.19"/>
</g>
<!-- matplotlib -->
<g id="node19" class="node">
<title>matplotlib</title><style>.edge>path:hover{stroke-width:8}</style>
<polygon fill="#316cc4" stroke="black" points="667.41,-575.67 664.41,-579.67 643.41,-579.67 640.41,-575.67 609.41,-575.67 609.41,-539.67 667.41,-539.67 667.41,-575.67"/>
<text text-anchor="middle" x="638.41" y="-553.79" font-family="Helvetica,sans-Serif" font-size="10.00" fill="#ffffff">matplotlib</text>
</g>
<!-- matplotlib&#45;&gt;apiary_utils -->
<g id="edge26" class="edge">
<title>matplotlib&#45;&gt;apiary_utils</title><style>.edge>path:hover{stroke-width:8}</style>
<path fill="none" stroke="black" d="M642.2,-539.45C644.57,-524.75 645.92,-503.41 638.41,-486.67"/>
</g>
<!-- numpy -->
<g id="node20" class="node">
<title>numpy</title><style>.edge>path:hover{stroke-width:8}</style>
<polygon fill="#5133cc" stroke="black" points="794.41,-684.67 791.41,-688.67 770.41,-688.67 767.41,-684.67 740.41,-684.67 740.41,-648.67 794.41,-648.67 794.41,-684.67"/>
<text text-anchor="middle" x="767.41" y="-662.79" font-family="Helvetica,sans-Serif" font-size="10.00" fill="#ffffff">numpy</text>
</g>
<!-- numpy&#45;&gt;apiary_shared -->
<g id="edge27" class="edge">
<title>numpy&#45;&gt;apiary_shared</title><style>.edge>path:hover{stroke-width:8}</style>
<path fill="none" stroke="black" d="M767.41,-611.67C753.47,-581.65 762.97,-569.39 748.41,-539.67 712.24,-465.86 647.74,-392.6 613.04,-356"/>
<polygon fill="#5133cc" stroke="black" points="615.8,-353.82 606.35,-349.02 610.74,-358.66 615.8,-353.82"/>
</g>
<!-- numpy&#45;&gt;matplotlib -->
<g id="edge28" class="edge">
<title>numpy&#45;&gt;matplotlib</title><style>.edge>path:hover{stroke-width:8}</style>
<path fill="none" stroke="black" d="M767.41,-611.67C750.45,-575.14 721.25,-589.86 678.38,-575.92"/>
<polygon fill="#5133cc" stroke="black" points="679.82,-572.72 669.23,-572.5 677.37,-579.28 679.82,-572.72"/>
<path fill="none" stroke="black" d="M770.94,-648.65C772.36,-637.85 772.6,-623.85 767.41,-612.67"/>
</g>
<!-- pandas -->
<g id="node21" class="node">
<title>pandas</title><style>.edge>path:hover{stroke-width:8}</style>
<polygon fill="#a640c0" stroke="black" points="739.41,-575.67 736.41,-579.67 715.41,-579.67 712.41,-575.67 685.41,-575.67 685.41,-539.67 739.41,-539.67 739.41,-575.67"/>
<text text-anchor="middle" x="712.41" y="-553.79" font-family="Helvetica,sans-Serif" font-size="10.00" fill="#ffffff">pandas</text>
</g>
<!-- pandas&#45;&gt;apiary_utils -->
<g id="edge29" class="edge">
<title>pandas&#45;&gt;apiary_utils</title><style>.edge>path:hover{stroke-width:8}</style>
<path fill="none" stroke="black" d="M685.37,-539.41C668.53,-526.99 648.26,-508.61 638.41,-486.67"/>
</g>
<!-- readwrite -->
<g id="node22" class="node">
<title>readwrite</title><style>.edge>path:hover{stroke-width:8}</style>
<polygon fill="#db2f96" stroke="black" points="303.28,-575.67 300.28,-579.67 279.28,-579.67 276.28,-575.67 247.53,-575.67 247.53,-539.67 303.28,-539.67 303.28,-575.67"/>
<text text-anchor="middle" x="275.41" y="-553.79" font-family="Helvetica,sans-Serif" font-size="10.00" fill="#ffffff">readwrite</text>
</g>
<!-- readwrite&#45;&gt;apiary_base_agent -->
<g id="edge30" class="edge">
<title>readwrite&#45;&gt;apiary_base_agent</title><style>.edge>path:hover{stroke-width:8}</style>
<path fill="none" stroke="black" d="M303.62,-550.71C336.02,-543.07 390.04,-527.83 431.41,-503.67 441.19,-497.95 442.31,-494.59 450.41,-486.67"/>
<path fill="none" stroke="black" d="M450.41,-484.67C463.47,-471.88 454.25,-453.5 441.75,-438.32"/>
<polygon fill="#db2f96" stroke="black" points="444.43,-436.07 435.16,-430.94 439.21,-440.73 444.43,-436.07"/>
</g>
<!-- readwrite&#45;&gt;apiary_external_services -->
<g id="edge31" class="edge">
<title>readwrite&#45;&gt;apiary_external_services</title><style>.edge>path:hover{stroke-width:8}</style>
<path fill="none" stroke="black" d="M158.41,-329.97C152.02,-306.48 132.32,-288.44 112.69,-275.74"/>
<polygon fill="#db2f96" stroke="black" points="114.77,-272.91 104.41,-270.71 111.14,-278.89 114.77,-272.91"/>
<path fill="none" stroke="black" d="M263.06,-539.41C237.89,-503.12 181.1,-415.36 158.41,-331.97"/>
</g>
<!-- readwrite&#45;&gt;apiary_inference -->
<g id="edge32" class="edge">
<title>readwrite&#45;&gt;apiary_inference</title><style>.edge>path:hover{stroke-width:8}</style>
<path fill="none" stroke="black" d="M158.41,-250.83C160.19,-239.49 218.01,-210.82 259.05,-191.82"/>
<polygon fill="#db2f96" stroke="black" points="260.34,-195.08 267.96,-187.72 257.41,-188.72 260.34,-195.08"/>
<path fill="none" stroke="black" d="M158.41,-329.97C143.61,-299.04 153.1,-286.7 158.41,-252.83"/>
</g>
<!-- readwrite&#45;&gt;apiary_utils -->
<g id="edge33" class="edge">
<title>readwrite&#45;&gt;apiary_utils</title><style>.edge>path:hover{stroke-width:8}</style>
<path fill="none" stroke="black" d="M450.41,-484.67C471.83,-463.7 499.66,-444.19 520.99,-430.54"/>
<polygon fill="#db2f96" stroke="black" points="522.7,-433.6 529.31,-425.32 518.98,-427.67 522.7,-433.6"/>
</g>
</g>
</svg>
