<?xml version="1.0" encoding="UTF-8" standalone="no"?>
<!DOCTYPE svg PUBLIC "-//W3C//DTD SVG 1.1//EN"
 "http://www.w3.org/Graphics/SVG/1.1/DTD/svg11.dtd">
<!-- Generated by graphviz version 12.1.2 (20240928.0832)
 -->
<!-- Title: G Pages: 1 -->
<svg width="638pt" height="584pt"
 viewBox="0.00 0.00 637.54 583.67" xmlns="http://www.w3.org/2000/svg" xmlns:xlink="http://www.w3.org/1999/xlink">
<g id="graph0" class="graph" transform="scale(1 1) rotate(0) translate(4 579.67)">
<title>G</title><style>.edge>path:hover{stroke-width:8}</style>
<polygon fill="white" stroke="none" points="-4,4 -4,-579.67 633.54,-579.67 633.54,4 -4,4"/>
<!-- apiary___main__ -->
<g id="node1" class="node">
<title>apiary___main__</title><style>.edge>path:hover{stroke-width:8}</style>
<ellipse fill="#ac4949" stroke="black" cx="259.54" cy="-21.57" rx="41.01" ry="21.57"/>
<text text-anchor="middle" x="259.54" y="-23.32" font-family="Helvetica,sans-Serif" font-size="10.00" fill="#ffffff">apiary.</text>
<text text-anchor="middle" x="259.54" y="-12.07" font-family="Helvetica,sans-Serif" font-size="10.00" fill="#ffffff">__main__</text>
</g>
<!-- apiary_agent_registry -->
<g id="node2" class="node">
<title>apiary_agent_registry</title><style>.edge>path:hover{stroke-width:8}</style>
<ellipse fill="#b03a3a" stroke="black" cx="383.54" cy="-251.83" rx="54.8" ry="21.57"/>
<text text-anchor="middle" x="383.54" y="-253.58" font-family="Helvetica,sans-Serif" font-size="10.00" fill="#ffffff">apiary.</text>
<text text-anchor="middle" x="383.54" y="-242.33" font-family="Helvetica,sans-Serif" font-size="10.00" fill="#ffffff">agent_registry</text>
</g>
<!-- apiary_inference -->
<g id="node9" class="node">
<title>apiary_inference</title><style>.edge>path:hover{stroke-width:8}</style>
<ellipse fill="#b03a3a" stroke="black" cx="383.54" cy="-172.7" rx="39.42" ry="21.57"/>
<text text-anchor="middle" x="383.54" y="-174.45" font-family="Helvetica,sans-Serif" font-size="10.00" fill="#ffffff">apiary.</text>
<text text-anchor="middle" x="383.54" y="-163.2" font-family="Helvetica,sans-Serif" font-size="10.00" fill="#ffffff">inference</text>
</g>
<!-- apiary_agent_registry&#45;&gt;apiary_inference -->
<g id="edge1" class="edge">
<title>apiary_agent_registry&#45;&gt;apiary_inference</title><style>.edge>path:hover{stroke-width:8}</style>
<path fill="none" stroke="black" d="M383.54,-230.16C383.54,-222.79 383.54,-214.29 383.54,-206.16"/>
<polygon fill="#b03a3a" stroke="black" points="387.04,-206.21 383.54,-196.21 380.04,-206.21 387.04,-206.21"/>
</g>
<!-- apiary_apiars -->
<g id="node3" class="node">
<title>apiary_apiars</title><style>.edge>path:hover{stroke-width:8}</style>
<ellipse fill="#b65353" stroke="black" cx="494.54" cy="-485.67" rx="41.42" ry="18"/>
<text text-anchor="middle" x="494.54" y="-481.79" font-family="Helvetica,sans-Serif" font-size="10.00" fill="#ffffff">apiary.apiars</text>
</g>
<!-- apiary_base_agent -->
<g id="node4" class="node">
<title>apiary_base_agent</title><style>.edge>path:hover{stroke-width:8}</style>
<ellipse fill="#bf2121" stroke="black" cx="500.54" cy="-410.1" rx="46.85" ry="21.57"/>
<text text-anchor="middle" x="500.54" y="-411.85" font-family="Helvetica,sans-Serif" font-size="10.00" fill="#ffffff">apiary.</text>
<text text-anchor="middle" x="500.54" y="-400.6" font-family="Helvetica,sans-Serif" font-size="10.00" fill="#ffffff">base_agent</text>
</g>
<!-- apiary_apiars&#45;&gt;apiary_base_agent -->
<g id="edge2" class="edge">
<title>apiary_apiars&#45;&gt;apiary_base_agent</title><style>.edge>path:hover{stroke-width:8}</style>
<path fill="none" stroke="black" d="M495.96,-467.23C496.55,-460.07 497.24,-451.54 497.91,-443.32"/>
<polygon fill="#b65353" stroke="black" points="501.38,-443.84 498.71,-433.59 494.41,-443.27 501.38,-443.84"/>
</g>
<!-- apiary_buyer -->
<g id="node5" class="node">
<title>apiary_buyer</title><style>.edge>path:hover{stroke-width:8}</style>
<ellipse fill="#a83838" stroke="black" cx="327.54" cy="-330.97" rx="40.09" ry="18"/>
<text text-anchor="middle" x="327.54" y="-327.09" font-family="Helvetica,sans-Serif" font-size="10.00" fill="#ffffff">apiary.buyer</text>
</g>
<!-- apiary_base_agent&#45;&gt;apiary_buyer -->
<g id="edge3" class="edge">
<title>apiary_base_agent&#45;&gt;apiary_buyer</title><style>.edge>path:hover{stroke-width:8}</style>
<path fill="none" stroke="black" d="M467.6,-394.41C438.48,-381.43 396.02,-362.5 365.49,-348.89"/>
<polygon fill="#bf2121" stroke="black" points="367.17,-345.81 356.62,-344.93 364.32,-352.2 367.17,-345.81"/>
</g>
<!-- apiary_seller -->
<g id="node10" class="node">
<title>apiary_seller</title><style>.edge>path:hover{stroke-width:8}</style>
<ellipse fill="#a83838" stroke="black" cx="425.54" cy="-330.97" rx="39.64" ry="18"/>
<text text-anchor="middle" x="425.54" y="-327.09" font-family="Helvetica,sans-Serif" font-size="10.00" fill="#ffffff">apiary.seller</text>
</g>
<!-- apiary_base_agent&#45;&gt;apiary_seller -->
<g id="edge4" class="edge">
<title>apiary_base_agent&#45;&gt;apiary_seller</title><style>.edge>path:hover{stroke-width:8}</style>
<path fill="none" stroke="black" d="M482,-390.03C471.98,-379.72 459.5,-366.89 448.83,-355.91"/>
<polygon fill="#bf2121" stroke="black" points="451.62,-353.77 442.14,-349.04 446.6,-358.65 451.62,-353.77"/>
</g>
<!-- apiary_validator -->
<g id="node12" class="node">
<title>apiary_validator</title><style>.edge>path:hover{stroke-width:8}</style>
<ellipse fill="#ac4949" stroke="black" cx="520.54" cy="-330.97" rx="37.3" ry="21.57"/>
<text text-anchor="middle" x="520.54" y="-332.72" font-family="Helvetica,sans-Serif" font-size="10.00" fill="#ffffff">apiary.</text>
<text text-anchor="middle" x="520.54" y="-321.47" font-family="Helvetica,sans-Serif" font-size="10.00" fill="#ffffff">validator</text>
</g>
<!-- apiary_base_agent&#45;&gt;apiary_validator -->
<g id="edge5" class="edge">
<title>apiary_base_agent&#45;&gt;apiary_validator</title><style>.edge>path:hover{stroke-width:8}</style>
<path fill="none" stroke="black" d="M505.9,-388.43C507.87,-380.82 510.16,-372.02 512.32,-363.66"/>
<polygon fill="#bf2121" stroke="black" points="515.67,-364.72 514.79,-354.16 508.89,-362.96 515.67,-364.72"/>
</g>
<!-- apiary_buyer&#45;&gt;apiary_agent_registry -->
<g id="edge6" class="edge">
<title>apiary_buyer&#45;&gt;apiary_agent_registry</title><style>.edge>path:hover{stroke-width:8}</style>
<path fill="none" stroke="black" d="M339.42,-313.61C346.07,-304.44 354.57,-292.74 362.33,-282.05"/>
<polygon fill="#a83838" stroke="black" points="364.96,-284.38 368,-274.24 359.3,-280.27 364.96,-284.38"/>
</g>
<!-- apiary_cli -->
<g id="node6" class="node">
<title>apiary_cli</title><style>.edge>path:hover{stroke-width:8}</style>
<ellipse fill="#993333" stroke="black" cx="259.54" cy="-97.13" rx="31.66" ry="18"/>
<text text-anchor="middle" x="259.54" y="-93.26" font-family="Helvetica,sans-Serif" font-size="10.00" fill="#ffffff">apiary.cli</text>
</g>
<!-- apiary_cli&#45;&gt;apiary___main__ -->
<g id="edge7" class="edge">
<title>apiary_cli&#45;&gt;apiary___main__</title><style>.edge>path:hover{stroke-width:8}</style>
<path fill="none" stroke="black" d="M259.54,-78.7C259.54,-71.54 259.54,-63.01 259.54,-54.79"/>
<polygon fill="#993333" stroke="black" points="263.04,-55.06 259.54,-45.06 256.04,-55.06 263.04,-55.06"/>
</g>
<!-- apiary_constants -->
<g id="node7" class="node">
<title>apiary_constants</title><style>.edge>path:hover{stroke-width:8}</style>
<ellipse fill="#c24747" stroke="black" cx="41.54" cy="-172.7" rx="41.54" ry="21.57"/>
<text text-anchor="middle" x="41.54" y="-174.45" font-family="Helvetica,sans-Serif" font-size="10.00" fill="#ffffff">apiary.</text>
<text text-anchor="middle" x="41.54" y="-163.2" font-family="Helvetica,sans-Serif" font-size="10.00" fill="#ffffff">constants</text>
</g>
<!-- apiary_constants&#45;&gt;apiary_cli -->
<g id="edge8" class="edge">
<title>apiary_constants&#45;&gt;apiary_cli</title><style>.edge>path:hover{stroke-width:8}</style>
<path fill="none" stroke="black" d="M73.5,-158.38C79.78,-155.89 86.34,-153.36 92.54,-151.13 136.13,-135.45 186.96,-119.67 220.98,-109.46"/>
<polygon fill="#c24747" stroke="black" points="221.81,-112.87 230.39,-106.65 219.81,-106.16 221.81,-112.87"/>
</g>
<!-- apiary_external_services -->
<g id="node8" class="node">
<title>apiary_external_services</title><style>.edge>path:hover{stroke-width:8}</style>
<ellipse fill="#c24747" stroke="black" cx="166.54" cy="-172.7" rx="65.41" ry="21.57"/>
<text text-anchor="middle" x="166.54" y="-174.45" font-family="Helvetica,sans-Serif" font-size="10.00" fill="#ffffff">apiary.</text>
<text text-anchor="middle" x="166.54" y="-163.2" font-family="Helvetica,sans-Serif" font-size="10.00" fill="#ffffff">external_services</text>
</g>
<!-- apiary_external_services&#45;&gt;apiary_cli -->
<g id="edge9" class="edge">
<title>apiary_external_services&#45;&gt;apiary_cli</title><style>.edge>path:hover{stroke-width:8}</style>
<path fill="none" stroke="black" d="M190.98,-152.37C203.92,-142.13 219.83,-129.55 233.07,-119.08"/>
<polygon fill="#c24747" stroke="black" points="234.88,-122.11 240.55,-113.16 230.53,-116.62 234.88,-122.11"/>
</g>
<!-- apiary_inference&#45;&gt;apiary_cli -->
<g id="edge10" class="edge">
<title>apiary_inference&#45;&gt;apiary_cli</title><style>.edge>path:hover{stroke-width:8}</style>
<path fill="none" stroke="black" d="M357.25,-156.1C337.78,-144.55 311.2,-128.78 290.68,-116.61"/>
<polygon fill="#b03a3a" stroke="black" points="292.55,-113.64 282.16,-111.55 288.98,-119.66 292.55,-113.64"/>
</g>
<!-- apiary_seller&#45;&gt;apiary_agent_registry -->
<g id="edge11" class="edge">
<title>apiary_seller&#45;&gt;apiary_agent_registry</title><style>.edge>path:hover{stroke-width:8}</style>
<path fill="none" stroke="black" d="M416.43,-313.23C411.65,-304.46 405.65,-293.44 400.09,-283.22"/>
<polygon fill="#a83838" stroke="black" points="403.31,-281.82 395.46,-274.71 397.16,-285.17 403.31,-281.82"/>
</g>
<!-- apiary_utils -->
<g id="node11" class="node">
<title>apiary_utils</title><style>.edge>path:hover{stroke-width:8}</style>
<ellipse fill="#ae1e1e" stroke="black" cx="328.54" cy="-410.1" rx="36.54" ry="18"/>
<text text-anchor="middle" x="328.54" y="-406.23" font-family="Helvetica,sans-Serif" font-size="10.00" fill="#ffffff">apiary.utils</text>
</g>
<!-- apiary_utils&#45;&gt;apiary_buyer -->
<g id="edge12" class="edge">
<title>apiary_utils&#45;&gt;apiary_buyer</title><style>.edge>path:hover{stroke-width:8}</style>
<path fill="none" stroke="black" d="M328.32,-391.98C328.2,-382.76 328.05,-371.14 327.91,-360.58"/>
<polygon fill="#ae1e1e" stroke="black" points="331.42,-360.77 327.79,-350.82 324.42,-360.86 331.42,-360.77"/>
</g>
<!-- apiary_utils&#45;&gt;apiary_cli -->
<g id="edge13" class="edge">
<title>apiary_utils&#45;&gt;apiary_cli</title><style>.edge>path:hover{stroke-width:8}</style>
<path fill="none" stroke="black" d="M310.2,-394.06C298.95,-383.68 285.42,-368.84 278.54,-352.53 246.25,-275.98 251.08,-175.01 255.97,-126.52"/>
<polygon fill="#ae1e1e" stroke="black" points="259.42,-127.19 257.03,-116.87 252.46,-126.43 259.42,-127.19"/>
</g>
<!-- apiary_utils&#45;&gt;apiary_seller -->
<g id="edge14" class="edge">
<title>apiary_utils&#45;&gt;apiary_seller</title><style>.edge>path:hover{stroke-width:8}</style>
<path fill="none" stroke="black" d="M347.25,-394.23C361.64,-382.78 381.77,-366.78 398.01,-353.86"/>
<polygon fill="#ae1e1e" stroke="black" points="399.73,-356.96 405.38,-348 395.38,-351.48 399.73,-356.96"/>
</g>
<!-- click -->
<g id="node13" class="node">
<title>click</title><style>.edge>path:hover{stroke-width:8}</style>
<polygon fill="#b69553" stroke="black" points="616.54,-269.83 613.54,-273.83 592.54,-273.83 589.54,-269.83 562.54,-269.83 562.54,-233.83 616.54,-233.83 616.54,-269.83"/>
<text text-anchor="middle" x="589.54" y="-247.96" font-family="Helvetica,sans-Serif" font-size="10.00" fill="#000000">click</text>
</g>
<!-- click&#45;&gt;apiary_cli -->
<g id="edge15" class="edge">
<title>click&#45;&gt;apiary_cli</title><style>.edge>path:hover{stroke-width:8}</style>
<path fill="none" stroke="black" d="M566.31,-233.39C536.44,-211.65 482.38,-174.5 431.54,-151.13 388.12,-131.17 335.19,-116.14 299.61,-107.28"/>
<polygon fill="#b69553" stroke="black" points="300.72,-103.95 290.17,-104.98 299.06,-110.75 300.72,-103.95"/>
</g>
<!-- colorlog -->
<g id="node14" class="node">
<title>colorlog</title><style>.edge>path:hover{stroke-width:8}</style>
<polygon fill="#95c040" stroke="black" points="428.54,-575.67 425.54,-579.67 404.54,-579.67 401.54,-575.67 374.54,-575.67 374.54,-539.67 428.54,-539.67 428.54,-575.67"/>
<text text-anchor="middle" x="401.54" y="-553.79" font-family="Helvetica,sans-Serif" font-size="10.00" fill="#000000">colorlog</text>
</g>
<!-- colorlog&#45;&gt;apiary_utils -->
<g id="edge16" class="edge">
<title>colorlog&#45;&gt;apiary_utils</title><style>.edge>path:hover{stroke-width:8}</style>
<path fill="none" stroke="black" d="M375.79,-539.37C353.51,-523.36 325.32,-500.07 328.54,-486.67"/>
</g>
<!-- dotenv -->
<g id="node15" class="node">
<title>dotenv</title><style>.edge>path:hover{stroke-width:8}</style>
<polygon fill="#2fdb2f" stroke="black" points="502.54,-575.67 499.54,-579.67 478.54,-579.67 475.54,-575.67 448.54,-575.67 448.54,-539.67 502.54,-539.67 502.54,-575.67"/>
<text text-anchor="middle" x="475.54" y="-553.79" font-family="Helvetica,sans-Serif" font-size="10.00" fill="#000000">dotenv</text>
</g>
<!-- dotenv&#45;&gt;apiary_base_agent -->
<g id="edge17" class="edge">
<title>dotenv&#45;&gt;apiary_base_agent</title><style>.edge>path:hover{stroke-width:8}</style>
<path fill="none" stroke="black" d="M502.89,-541.66C529.15,-526.28 564.7,-502.44 563.54,-486.67"/>
<path fill="none" stroke="black" d="M563.54,-484.67C562.12,-465.22 549.06,-448.3 535.2,-435.61"/>
<polygon fill="#2fdb2f" stroke="black" points="537.6,-433.06 527.72,-429.25 533.07,-438.39 537.6,-433.06"/>
</g>
<!-- dotenv&#45;&gt;apiary_buyer -->
<g id="edge18" class="edge">
<title>dotenv&#45;&gt;apiary_buyer</title><style>.edge>path:hover{stroke-width:8}</style>
<path fill="none" stroke="black" d="M425.54,-409.1C417.54,-380.98 390.72,-361.07 367.16,-348.53"/>
<polygon fill="#2fdb2f" stroke="black" points="368.84,-345.46 358.33,-344.12 365.71,-351.72 368.84,-345.46"/>
<path fill="none" stroke="black" d="M425.54,-484.67C407.38,-457.48 434.49,-442.55 425.54,-411.1"/>
</g>
<!-- dotenv&#45;&gt;apiary_seller -->
<g id="edge19" class="edge">
<title>dotenv&#45;&gt;apiary_seller</title><style>.edge>path:hover{stroke-width:8}</style>
<path fill="none" stroke="black" d="M425.54,-409.1C421.06,-393.35 420.86,-375.04 421.88,-360.22"/>
<polygon fill="#2fdb2f" stroke="black" points="425.32,-360.98 422.75,-350.7 418.35,-360.33 425.32,-360.98"/>
</g>
<!-- dotenv&#45;&gt;apiary_utils -->
<g id="edge20" class="edge">
<title>dotenv&#45;&gt;apiary_utils</title><style>.edge>path:hover{stroke-width:8}</style>
<path fill="none" stroke="black" d="M462.7,-539.33C452.41,-525.3 437.73,-504.92 425.54,-486.67"/>
<path fill="none" stroke="black" d="M425.54,-484.67C409.91,-461.25 384.28,-442.29 363.29,-429.48"/>
<polygon fill="#2fdb2f" stroke="black" points="365.13,-426.5 354.73,-424.46 361.59,-432.54 365.13,-426.5"/>
</g>
<!-- fastapi -->
<g id="node16" class="node">
<title>fastapi</title><style>.edge>path:hover{stroke-width:8}</style>
<polygon fill="#53b695" stroke="black" points="629.54,-348.97 626.54,-352.97 605.54,-352.97 602.54,-348.97 575.54,-348.97 575.54,-312.97 629.54,-312.97 629.54,-348.97"/>
<text text-anchor="middle" x="602.54" y="-327.09" font-family="Helvetica,sans-Serif" font-size="10.00" fill="#000000">fastapi</text>
</g>
<!-- fastapi&#45;&gt;apiary_inference -->
<g id="edge21" class="edge">
<title>fastapi&#45;&gt;apiary_inference</title><style>.edge>path:hover{stroke-width:8}</style>
<path fill="none" stroke="black" d="M578.27,-312.65C538.74,-284.44 460.43,-228.56 416.11,-196.94"/>
<polygon fill="#53b695" stroke="black" points="418.33,-194.23 408.16,-191.27 414.27,-199.92 418.33,-194.23"/>
</g>
<!-- lighthouseweb3 -->
<g id="node17" class="node">
<title>lighthouseweb3</title><style>.edge>path:hover{stroke-width:8}</style>
<polygon fill="#5395b6" stroke="black" points="605.29,-575.67 602.29,-579.67 581.29,-579.67 578.29,-575.67 521.79,-575.67 521.79,-539.67 605.29,-539.67 605.29,-575.67"/>
<text text-anchor="middle" x="563.54" y="-553.79" font-family="Helvetica,sans-Serif" font-size="10.00" fill="#000000">lighthouseweb3</text>
</g>
<!-- lighthouseweb3&#45;&gt;apiary_base_agent -->
<g id="edge22" class="edge">
<title>lighthouseweb3&#45;&gt;apiary_base_agent</title><style>.edge>path:hover{stroke-width:8}</style>
<path fill="none" stroke="black" d="M564.24,-539.38C564.65,-525.2 564.86,-504.61 563.54,-486.67"/>
</g>
<!-- matplotlib -->
<g id="node18" class="node">
<title>matplotlib</title><style>.edge>path:hover{stroke-width:8}</style>
<polygon fill="#3131c4" stroke="black" points="210.54,-575.67 207.54,-579.67 186.54,-579.67 183.54,-575.67 152.54,-575.67 152.54,-539.67 210.54,-539.67 210.54,-575.67"/>
<text text-anchor="middle" x="181.54" y="-553.79" font-family="Helvetica,sans-Serif" font-size="10.00" fill="#ffffff">matplotlib</text>
</g>
<!-- matplotlib&#45;&gt;apiary_utils -->
<g id="edge23" class="edge">
<title>matplotlib&#45;&gt;apiary_utils</title><style>.edge>path:hover{stroke-width:8}</style>
<path fill="none" stroke="black" d="M328.54,-484.67C332.05,-470.07 332.34,-453.36 331.62,-439.57"/>
<polygon fill="#3131c4" stroke="black" points="335.13,-439.54 330.9,-429.82 328.15,-440.05 335.13,-439.54"/>
<path fill="none" stroke="black" d="M210.75,-543.45C253.4,-524.04 327.79,-489.8 328.54,-486.67"/>
</g>
<!-- pandas -->
<g id="node19" class="node">
<title>pandas</title><style>.edge>path:hover{stroke-width:8}</style>
<polygon fill="#9540c0" stroke="black" points="282.54,-575.67 279.54,-579.67 258.54,-579.67 255.54,-575.67 228.54,-575.67 228.54,-539.67 282.54,-539.67 282.54,-575.67"/>
<text text-anchor="middle" x="255.54" y="-553.79" font-family="Helvetica,sans-Serif" font-size="10.00" fill="#ffffff">pandas</text>
</g>
<!-- pandas&#45;&gt;apiary_utils -->
<g id="edge24" class="edge">
<title>pandas&#45;&gt;apiary_utils</title><style>.edge>path:hover{stroke-width:8}</style>
<path fill="none" stroke="black" d="M283,-541.55C301.2,-529.53 322.75,-510.74 328.54,-486.67"/>
</g>
<!-- readwrite -->
<g id="node20" class="node">
<title>readwrite</title><style>.edge>path:hover{stroke-width:8}</style>
<polygon fill="#b65395" stroke="black" points="356.42,-575.67 353.42,-579.67 332.42,-579.67 329.42,-575.67 300.67,-575.67 300.67,-539.67 356.42,-539.67 356.42,-575.67"/>
<text text-anchor="middle" x="328.54" y="-553.79" font-family="Helvetica,sans-Serif" font-size="10.00" fill="#ffffff">readwrite</text>
</g>
<!-- readwrite&#45;&gt;apiary_utils -->
<g id="edge25" class="edge">
<title>readwrite&#45;&gt;apiary_utils</title><style>.edge>path:hover{stroke-width:8}</style>
<path fill="none" stroke="black" d="M326.32,-539.43C325,-525.1 324.31,-504.27 328.54,-486.67"/>
</g>
</g>
</svg>
