<?xml version="1.0" encoding="UTF-8" standalone="no"?>
<!DOCTYPE svg PUBLIC "-//W3C//DTD SVG 1.1//EN"
 "http://www.w3.org/Graphics/SVG/1.1/DTD/svg11.dtd">
<!-- Generated by graphviz version 12.1.2 (20240928.0832)
 -->
<!-- Title: G Pages: 1 -->
<svg width="638pt" height="656pt"
 viewBox="0.00 0.00 637.63 655.67" xmlns="http://www.w3.org/2000/svg" xmlns:xlink="http://www.w3.org/1999/xlink">
<g id="graph0" class="graph" transform="scale(1 1) rotate(0) translate(4 651.67)">
<title>G</title><style>.edge>path:hover{stroke-width:8}</style>
<polygon fill="white" stroke="none" points="-4,4 -4,-651.67 633.63,-651.67 633.63,4 -4,4"/>
<!-- apiary___main__ -->
<g id="node1" class="node">
<title>apiary___main__</title><style>.edge>path:hover{stroke-width:8}</style>
<ellipse fill="#ac4949" stroke="black" cx="259.54" cy="-21.57" rx="41.01" ry="21.57"/>
<text text-anchor="middle" x="259.54" y="-23.32" font-family="Helvetica,sans-Serif" font-size="10.00" fill="#ffffff">apiary.</text>
<text text-anchor="middle" x="259.54" y="-12.07" font-family="Helvetica,sans-Serif" font-size="10.00" fill="#ffffff">__main__</text>
</g>
<!-- apiary_agent_registry -->
<g id="node2" class="node">
<title>apiary_agent_registry</title><style>.edge>path:hover{stroke-width:8}</style>
<ellipse fill="#b03a3a" stroke="black" cx="398.54" cy="-251.83" rx="54.8" ry="21.57"/>
<text text-anchor="middle" x="398.54" y="-253.58" font-family="Helvetica,sans-Serif" font-size="10.00" fill="#ffffff">apiary.</text>
<text text-anchor="middle" x="398.54" y="-242.33" font-family="Helvetica,sans-Serif" font-size="10.00" fill="#ffffff">agent_registry</text>
</g>
<!-- apiary_inference -->
<g id="node9" class="node">
<title>apiary_inference</title><style>.edge>path:hover{stroke-width:8}</style>
<ellipse fill="#b03a3a" stroke="black" cx="326.54" cy="-172.7" rx="39.42" ry="21.57"/>
<text text-anchor="middle" x="326.54" y="-174.45" font-family="Helvetica,sans-Serif" font-size="10.00" fill="#ffffff">apiary.</text>
<text text-anchor="middle" x="326.54" y="-163.2" font-family="Helvetica,sans-Serif" font-size="10.00" fill="#ffffff">inference</text>
</g>
<!-- apiary_agent_registry&#45;&gt;apiary_inference -->
<g id="edge1" class="edge">
<title>apiary_agent_registry&#45;&gt;apiary_inference</title><style>.edge>path:hover{stroke-width:8}</style>
<path fill="none" stroke="black" d="M380.37,-231.37C371.65,-222.03 361.06,-210.68 351.59,-200.53"/>
<polygon fill="#b03a3a" stroke="black" points="354.38,-198.39 344.99,-193.47 349.26,-203.16 354.38,-198.39"/>
</g>
<!-- apiary_apiars -->
<g id="node3" class="node">
<title>apiary_apiars</title><style>.edge>path:hover{stroke-width:8}</style>
<ellipse fill="#b65353" stroke="black" cx="468.54" cy="-485.67" rx="41.42" ry="18"/>
<text text-anchor="middle" x="468.54" y="-481.79" font-family="Helvetica,sans-Serif" font-size="10.00" fill="#ffffff">apiary.apiars</text>
</g>
<!-- apiary_base_agent -->
<g id="node4" class="node">
<title>apiary_base_agent</title><style>.edge>path:hover{stroke-width:8}</style>
<ellipse fill="#b62020" stroke="black" cx="468.54" cy="-410.1" rx="46.85" ry="21.57"/>
<text text-anchor="middle" x="468.54" y="-411.85" font-family="Helvetica,sans-Serif" font-size="10.00" fill="#ffffff">apiary.</text>
<text text-anchor="middle" x="468.54" y="-400.6" font-family="Helvetica,sans-Serif" font-size="10.00" fill="#ffffff">base_agent</text>
</g>
<!-- apiary_apiars&#45;&gt;apiary_base_agent -->
<g id="edge2" class="edge">
<title>apiary_apiars&#45;&gt;apiary_base_agent</title><style>.edge>path:hover{stroke-width:8}</style>
<path fill="none" stroke="black" d="M468.54,-467.23C468.54,-460.07 468.54,-451.54 468.54,-443.32"/>
<polygon fill="#b65353" stroke="black" points="472.04,-443.59 468.54,-433.59 465.04,-443.59 472.04,-443.59"/>
</g>
<!-- apiary_buyer -->
<g id="node5" class="node">
<title>apiary_buyer</title><style>.edge>path:hover{stroke-width:8}</style>
<ellipse fill="#b03a3a" stroke="black" cx="589.54" cy="-330.97" rx="40.09" ry="18"/>
<text text-anchor="middle" x="589.54" y="-327.09" font-family="Helvetica,sans-Serif" font-size="10.00" fill="#ffffff">apiary.buyer</text>
</g>
<!-- apiary_base_agent&#45;&gt;apiary_buyer -->
<g id="edge3" class="edge">
<title>apiary_base_agent&#45;&gt;apiary_buyer</title><style>.edge>path:hover{stroke-width:8}</style>
<path fill="none" stroke="black" d="M495.4,-391.98C513.78,-380.27 538.23,-364.68 557.61,-352.32"/>
<polygon fill="#b62020" stroke="black" points="559.39,-355.34 565.95,-347.01 555.63,-349.43 559.39,-355.34"/>
</g>
<!-- apiary_seller -->
<g id="node10" class="node">
<title>apiary_seller</title><style>.edge>path:hover{stroke-width:8}</style>
<ellipse fill="#b03a3a" stroke="black" cx="399.54" cy="-330.97" rx="39.64" ry="18"/>
<text text-anchor="middle" x="399.54" y="-327.09" font-family="Helvetica,sans-Serif" font-size="10.00" fill="#ffffff">apiary.seller</text>
</g>
<!-- apiary_base_agent&#45;&gt;apiary_seller -->
<g id="edge4" class="edge">
<title>apiary_base_agent&#45;&gt;apiary_seller</title><style>.edge>path:hover{stroke-width:8}</style>
<path fill="none" stroke="black" d="M451.13,-389.64C442.15,-379.6 431.1,-367.24 421.53,-356.55"/>
<polygon fill="#b62020" stroke="black" points="424.21,-354.29 414.93,-349.17 418.99,-358.96 424.21,-354.29"/>
</g>
<!-- apiary_validator -->
<g id="node12" class="node">
<title>apiary_validator</title><style>.edge>path:hover{stroke-width:8}</style>
<ellipse fill="#ac4949" stroke="black" cx="494.54" cy="-330.97" rx="37.3" ry="21.57"/>
<text text-anchor="middle" x="494.54" y="-332.72" font-family="Helvetica,sans-Serif" font-size="10.00" fill="#ffffff">apiary.</text>
<text text-anchor="middle" x="494.54" y="-321.47" font-family="Helvetica,sans-Serif" font-size="10.00" fill="#ffffff">validator</text>
</g>
<!-- apiary_base_agent&#45;&gt;apiary_validator -->
<g id="edge5" class="edge">
<title>apiary_base_agent&#45;&gt;apiary_validator</title><style>.edge>path:hover{stroke-width:8}</style>
<path fill="none" stroke="black" d="M475.51,-388.43C478.12,-380.67 481.16,-371.68 484.02,-363.17"/>
<polygon fill="#b62020" stroke="black" points="487.28,-364.46 487.16,-353.86 480.65,-362.22 487.28,-364.46"/>
</g>
<!-- apiary_buyer&#45;&gt;apiary_agent_registry -->
<g id="edge6" class="edge">
<title>apiary_buyer&#45;&gt;apiary_agent_registry</title><style>.edge>path:hover{stroke-width:8}</style>
<path fill="none" stroke="black" d="M561.08,-317.92C554.35,-315.1 547.2,-312.12 540.54,-309.4 509.54,-296.72 474.58,-282.79 447.11,-271.93"/>
<polygon fill="#b03a3a" stroke="black" points="448.58,-268.75 438,-268.33 446.01,-275.26 448.58,-268.75"/>
</g>
<!-- apiary_cli -->
<g id="node6" class="node">
<title>apiary_cli</title><style>.edge>path:hover{stroke-width:8}</style>
<ellipse fill="#993333" stroke="black" cx="259.54" cy="-97.13" rx="31.66" ry="18"/>
<text text-anchor="middle" x="259.54" y="-93.26" font-family="Helvetica,sans-Serif" font-size="10.00" fill="#ffffff">apiary.cli</text>
</g>
<!-- apiary_cli&#45;&gt;apiary___main__ -->
<g id="edge7" class="edge">
<title>apiary_cli&#45;&gt;apiary___main__</title><style>.edge>path:hover{stroke-width:8}</style>
<path fill="none" stroke="black" d="M259.54,-78.7C259.54,-71.54 259.54,-63.01 259.54,-54.79"/>
<polygon fill="#993333" stroke="black" points="263.04,-55.06 259.54,-45.06 256.04,-55.06 263.04,-55.06"/>
</g>
<!-- apiary_constants -->
<g id="node7" class="node">
<title>apiary_constants</title><style>.edge>path:hover{stroke-width:8}</style>
<ellipse fill="#c24747" stroke="black" cx="41.54" cy="-172.7" rx="41.54" ry="21.57"/>
<text text-anchor="middle" x="41.54" y="-174.45" font-family="Helvetica,sans-Serif" font-size="10.00" fill="#ffffff">apiary.</text>
<text text-anchor="middle" x="41.54" y="-163.2" font-family="Helvetica,sans-Serif" font-size="10.00" fill="#ffffff">constants</text>
</g>
<!-- apiary_constants&#45;&gt;apiary_cli -->
<g id="edge8" class="edge">
<title>apiary_constants&#45;&gt;apiary_cli</title><style>.edge>path:hover{stroke-width:8}</style>
<path fill="none" stroke="black" d="M73.5,-158.38C79.78,-155.89 86.34,-153.36 92.54,-151.13 136.13,-135.45 186.96,-119.67 220.98,-109.46"/>
<polygon fill="#c24747" stroke="black" points="221.81,-112.87 230.39,-106.65 219.81,-106.16 221.81,-112.87"/>
</g>
<!-- apiary_external_services -->
<g id="node8" class="node">
<title>apiary_external_services</title><style>.edge>path:hover{stroke-width:8}</style>
<ellipse fill="#c24747" stroke="black" cx="166.54" cy="-172.7" rx="65.41" ry="21.57"/>
<text text-anchor="middle" x="166.54" y="-174.45" font-family="Helvetica,sans-Serif" font-size="10.00" fill="#ffffff">apiary.</text>
<text text-anchor="middle" x="166.54" y="-163.2" font-family="Helvetica,sans-Serif" font-size="10.00" fill="#ffffff">external_services</text>
</g>
<!-- apiary_external_services&#45;&gt;apiary_cli -->
<g id="edge9" class="edge">
<title>apiary_external_services&#45;&gt;apiary_cli</title><style>.edge>path:hover{stroke-width:8}</style>
<path fill="none" stroke="black" d="M190.98,-152.37C203.92,-142.13 219.83,-129.55 233.07,-119.08"/>
<polygon fill="#c24747" stroke="black" points="234.88,-122.11 240.55,-113.16 230.53,-116.62 234.88,-122.11"/>
</g>
<!-- apiary_inference&#45;&gt;apiary_cli -->
<g id="edge10" class="edge">
<title>apiary_inference&#45;&gt;apiary_cli</title><style>.edge>path:hover{stroke-width:8}</style>
<path fill="none" stroke="black" d="M309.64,-153.14C301,-143.65 290.4,-132.01 281.17,-121.88"/>
<polygon fill="#b03a3a" stroke="black" points="283.85,-119.62 274.53,-114.58 278.67,-124.34 283.85,-119.62"/>
</g>
<!-- apiary_seller&#45;&gt;apiary_agent_registry -->
<g id="edge11" class="edge">
<title>apiary_seller&#45;&gt;apiary_agent_registry</title><style>.edge>path:hover{stroke-width:8}</style>
<path fill="none" stroke="black" d="M399.32,-312.85C399.21,-304.64 399.08,-294.54 398.96,-284.98"/>
<polygon fill="#b03a3a" stroke="black" points="402.46,-285.22 398.83,-275.27 395.46,-285.31 402.46,-285.22"/>
</g>
<!-- apiary_utils -->
<g id="node11" class="node">
<title>apiary_utils</title><style>.edge>path:hover{stroke-width:8}</style>
<ellipse fill="#a32828" stroke="black" cx="334.54" cy="-485.67" rx="36.54" ry="18"/>
<text text-anchor="middle" x="334.54" y="-481.79" font-family="Helvetica,sans-Serif" font-size="10.00" fill="#ffffff">apiary.utils</text>
</g>
<!-- apiary_utils&#45;&gt;apiary_base_agent -->
<g id="edge12" class="edge">
<title>apiary_utils&#45;&gt;apiary_base_agent</title><style>.edge>path:hover{stroke-width:8}</style>
<path fill="none" stroke="black" d="M358.19,-471.68C377.83,-460.91 406.16,-445.35 429.21,-432.7"/>
<polygon fill="#a32828" stroke="black" points="430.64,-435.9 437.72,-428.02 427.27,-429.77 430.64,-435.9"/>
</g>
<!-- apiary_utils&#45;&gt;apiary_cli -->
<g id="edge13" class="edge">
<title>apiary_utils&#45;&gt;apiary_cli</title><style>.edge>path:hover{stroke-width:8}</style>
<path fill="none" stroke="black" d="M320.79,-468.98C299.13,-442.62 259.54,-386.9 259.54,-331.97 259.54,-331.97 259.54,-331.97 259.54,-250.83 259.54,-207.54 259.54,-157.33 259.54,-126.66"/>
<polygon fill="#a32828" stroke="black" points="263.04,-127.05 259.54,-117.05 256.04,-127.05 263.04,-127.05"/>
</g>
<!-- click -->
<g id="node13" class="node">
<title>click</title><style>.edge>path:hover{stroke-width:8}</style>
<polygon fill="#b69553" stroke="black" points="525.54,-269.83 522.54,-273.83 501.54,-273.83 498.54,-269.83 471.54,-269.83 471.54,-233.83 525.54,-233.83 525.54,-269.83"/>
<text text-anchor="middle" x="498.54" y="-247.96" font-family="Helvetica,sans-Serif" font-size="10.00" fill="#000000">click</text>
</g>
<!-- click&#45;&gt;apiary_cli -->
<g id="edge14" class="edge">
<title>click&#45;&gt;apiary_cli</title><style>.edge>path:hover{stroke-width:8}</style>
<path fill="none" stroke="black" d="M479.89,-233.38C456.54,-212.13 414.7,-176.01 374.54,-151.13 349.37,-135.54 318.86,-121.69 295.59,-112.06"/>
<polygon fill="#b69553" stroke="black" points="297.11,-108.9 286.53,-108.38 294.48,-115.39 297.11,-108.9"/>
</g>
<!-- colorlog -->
<g id="node14" class="node">
<title>colorlog</title><style>.edge>path:hover{stroke-width:8}</style>
<polygon fill="#95c040" stroke="black" points="213.54,-647.67 210.54,-651.67 189.54,-651.67 186.54,-647.67 159.54,-647.67 159.54,-611.67 213.54,-611.67 213.54,-647.67"/>
<text text-anchor="middle" x="186.54" y="-625.79" font-family="Helvetica,sans-Serif" font-size="10.00" fill="#000000">colorlog</text>
</g>
<!-- colorlog&#45;&gt;apiary_utils -->
<g id="edge15" class="edge">
<title>colorlog&#45;&gt;apiary_utils</title><style>.edge>path:hover{stroke-width:8}</style>
<path fill="none" stroke="black" d="M214.03,-615.69C256.82,-595.48 334.52,-558.77 334.54,-558.67"/>
<path fill="none" stroke="black" d="M334.54,-556.67C337.79,-543.33 338.17,-528.15 337.58,-515.33"/>
<polygon fill="#95c040" stroke="black" points="341.08,-515.15 336.89,-505.42 334.1,-515.64 341.08,-515.15"/>
</g>
<!-- dotenv -->
<g id="node15" class="node">
<title>dotenv</title><style>.edge>path:hover{stroke-width:8}</style>
<polygon fill="#2fdb2f" stroke="black" points="565.54,-647.67 562.54,-651.67 541.54,-651.67 538.54,-647.67 511.54,-647.67 511.54,-611.67 565.54,-611.67 565.54,-647.67"/>
<text text-anchor="middle" x="538.54" y="-625.79" font-family="Helvetica,sans-Serif" font-size="10.00" fill="#000000">dotenv</text>
</g>
<!-- dotenv&#45;&gt;apiary_base_agent -->
<g id="edge16" class="edge">
<title>dotenv&#45;&gt;apiary_base_agent</title><style>.edge>path:hover{stroke-width:8}</style>
<path fill="none" stroke="black" d="M399.54,-484.67C403.53,-464.72 418.12,-447.72 432.86,-435.11"/>
<polygon fill="#2fdb2f" stroke="black" points="434.68,-438.13 440.29,-429.15 430.3,-432.67 434.68,-438.13"/>
</g>
<!-- dotenv&#45;&gt;apiary_buyer -->
<g id="edge17" class="edge">
<title>dotenv&#45;&gt;apiary_buyer</title><style>.edge>path:hover{stroke-width:8}</style>
<path fill="none" stroke="black" d="M554.72,-611.49C562.83,-601.76 571.89,-588.91 576.54,-575.67 602.57,-501.54 597.71,-406.94 593.06,-360.42"/>
<polygon fill="#2fdb2f" stroke="black" points="596.56,-360.21 592,-350.65 589.6,-360.97 596.56,-360.21"/>
</g>
<!-- dotenv&#45;&gt;apiary_seller -->
<g id="edge18" class="edge">
<title>dotenv&#45;&gt;apiary_seller</title><style>.edge>path:hover{stroke-width:8}</style>
<path fill="none" stroke="black" d="M399.54,-556.67C378.14,-534.08 393.44,-517.17 399.54,-486.67"/>
<path fill="none" stroke="black" d="M399.54,-484.67C408.08,-441.98 405.67,-391.23 402.84,-360.32"/>
<polygon fill="#2fdb2f" stroke="black" points="406.35,-360.24 401.86,-350.64 399.38,-360.94 406.35,-360.24"/>
</g>
<!-- dotenv&#45;&gt;apiary_utils -->
<g id="edge19" class="edge">
<title>dotenv&#45;&gt;apiary_utils</title><style>.edge>path:hover{stroke-width:8}</style>
<path fill="none" stroke="black" d="M511.08,-621.05C480.27,-611.23 430.58,-591.42 399.54,-558.67"/>
<path fill="none" stroke="black" d="M399.54,-556.67C385.23,-541.56 369.32,-524.44 356.83,-510.91"/>
<polygon fill="#2fdb2f" stroke="black" points="359.54,-508.69 350.19,-503.71 354.4,-513.44 359.54,-508.69"/>
</g>
<!-- fastapi -->
<g id="node16" class="node">
<title>fastapi</title><style>.edge>path:hover{stroke-width:8}</style>
<polygon fill="#53b695" stroke="black" points="341.54,-348.97 338.54,-352.97 317.54,-352.97 314.54,-348.97 287.54,-348.97 287.54,-312.97 341.54,-312.97 341.54,-348.97"/>
<text text-anchor="middle" x="314.54" y="-327.09" font-family="Helvetica,sans-Serif" font-size="10.00" fill="#000000">fastapi</text>
</g>
<!-- fastapi&#45;&gt;apiary_inference -->
<g id="edge20" class="edge">
<title>fastapi&#45;&gt;apiary_inference</title><style>.edge>path:hover{stroke-width:8}</style>
<path fill="none" stroke="black" d="M315.87,-312.65C317.85,-286.89 321.6,-238.04 324.09,-205.67"/>
<polygon fill="#53b695" stroke="black" points="327.55,-206.32 324.82,-196.08 320.57,-205.78 327.55,-206.32"/>
</g>
<!-- lighthouseweb3 -->
<g id="node17" class="node">
<title>lighthouseweb3</title><style>.edge>path:hover{stroke-width:8}</style>
<polygon fill="#5395b6" stroke="black" points="567.29,-575.67 564.29,-579.67 543.29,-579.67 540.29,-575.67 483.79,-575.67 483.79,-539.67 567.29,-539.67 567.29,-575.67"/>
<text text-anchor="middle" x="525.54" y="-553.79" font-family="Helvetica,sans-Serif" font-size="10.00" fill="#000000">lighthouseweb3</text>
</g>
<!-- lighthouseweb3&#45;&gt;apiary_base_agent -->
<g id="edge21" class="edge">
<title>lighthouseweb3&#45;&gt;apiary_base_agent</title><style>.edge>path:hover{stroke-width:8}</style>
<path fill="none" stroke="black" d="M527.35,-539.17C528.55,-520.65 528.41,-490.93 518.54,-467.67 513.9,-456.72 506.26,-446.42 498.34,-437.69"/>
<polygon fill="#5395b6" stroke="black" points="500.95,-435.36 491.48,-430.61 495.92,-440.23 500.95,-435.36"/>
</g>
<!-- matplotlib -->
<g id="node18" class="node">
<title>matplotlib</title><style>.edge>path:hover{stroke-width:8}</style>
<polygon fill="#3131c4" stroke="black" points="289.54,-647.67 286.54,-651.67 265.54,-651.67 262.54,-647.67 231.54,-647.67 231.54,-611.67 289.54,-611.67 289.54,-647.67"/>
<text text-anchor="middle" x="260.54" y="-625.79" font-family="Helvetica,sans-Serif" font-size="10.00" fill="#ffffff">matplotlib</text>
</g>
<!-- matplotlib&#45;&gt;apiary_utils -->
<g id="edge22" class="edge">
<title>matplotlib&#45;&gt;apiary_utils</title><style>.edge>path:hover{stroke-width:8}</style>
<path fill="none" stroke="black" d="M289.93,-612.61C308.02,-600.6 328.81,-582.21 334.54,-558.67"/>
</g>
<!-- pandas -->
<g id="node19" class="node">
<title>pandas</title><style>.edge>path:hover{stroke-width:8}</style>
<polygon fill="#9540c0" stroke="black" points="361.54,-647.67 358.54,-651.67 337.54,-651.67 334.54,-647.67 307.54,-647.67 307.54,-611.67 361.54,-611.67 361.54,-647.67"/>
<text text-anchor="middle" x="334.54" y="-625.79" font-family="Helvetica,sans-Serif" font-size="10.00" fill="#ffffff">pandas</text>
</g>
<!-- pandas&#45;&gt;apiary_utils -->
<g id="edge23" class="edge">
<title>pandas&#45;&gt;apiary_utils</title><style>.edge>path:hover{stroke-width:8}</style>
<path fill="none" stroke="black" d="M332.3,-611.42C330.96,-597.09 330.26,-576.26 334.54,-558.67"/>
</g>
<!-- readwrite -->
<g id="node20" class="node">
<title>readwrite</title><style>.edge>path:hover{stroke-width:8}</style>
<polygon fill="#b65395" stroke="black" points="435.42,-647.67 432.42,-651.67 411.42,-651.67 408.42,-647.67 379.67,-647.67 379.67,-611.67 435.42,-611.67 435.42,-647.67"/>
<text text-anchor="middle" x="407.54" y="-625.79" font-family="Helvetica,sans-Serif" font-size="10.00" fill="#ffffff">readwrite</text>
</g>
<!-- readwrite&#45;&gt;apiary_utils -->
<g id="edge24" class="edge">
<title>readwrite&#45;&gt;apiary_utils</title><style>.edge>path:hover{stroke-width:8}</style>
<path fill="none" stroke="black" d="M381.77,-611.37C359.48,-595.35 331.28,-572.06 334.54,-558.67"/>
</g>
</g>
</svg>
